IBM Plex Sans Var-Bold Condensed.ufo
<glyph name="E" format="2">
	<advance width="549"/>
	<unicode hex="0045"/>
	<anchor x="284" y="0" name="bottom"/>
	<anchor x="500" y="0" name="bottomright"/>
	<anchor x="284" y="698" name="top"/>
	<outline>
		<contour>
			<point x="500" y="0" type="line" name="hr00"/>
			<point x="500" y="125" type="line"/>
			<point x="211" y="125" type="line"/>
			<point x="211" y="291" type="line"/>
			<point x="456" y="291" type="line"/>
			<point x="456" y="415" type="line"/>
			<point x="211" y="415" type="line"/>
			<point x="211" y="573" type="line"/>
			<point x="500" y="573" type="line"/>
			<point x="500" y="698" type="line"/>
			<point x="68" y="698" type="line"/>
			<point x="68" y="0" type="line"/>
		</contour>
	</outline>
</glyph>
<glyph name="H" format="2">
	<advance width="654"/>
	<unicode hex="0048"/>
	<anchor x="327" y="0" name="bottom"/>
	<anchor x="327" y="698" name="top"/>
	<outline>
		<contour>
			<point x="443" y="0" type="line" name="hr00"/>
			<point x="586" y="0" type="line"/>
			<point x="586" y="698" type="line"/>
			<point x="443" y="698" type="line"/>
			<point x="443" y="415" type="line"/>
			<point x="211" y="415" type="line"/>
			<point x="211" y="698" type="line"/>
			<point x="68" y="698" type="line"/>
			<point x="68" y="0" type="line"/>
			<point x="211" y="0" type="line"/>
			<point x="211" y="291" type="line"/>
			<point x="443" y="291" type="line"/>
		</contour>
	</outline>
</glyph>
<glyph name="I" format="2">
	<advance width="397"/>
	<unicode hex="0049"/>
	<anchor x="199" y="0" name="bottom"/>
	<anchor x="352" y="0" name="bottomright"/>
	<anchor x="199" y="698" name="top"/>
	<outline>
		<contour>
			<point x="352" y="0" type="line" name="hr00"/>
			<point x="352" y="113" type="line"/>
			<point x="270" y="113" type="line"/>
			<point x="270" y="585" type="line"/>
			<point x="352" y="585" type="line"/>
			<point x="352" y="698" type="line"/>
			<point x="45" y="698" type="line"/>
			<point x="45" y="585" type="line"/>
			<point x="127" y="585" type="line"/>
			<point x="127" y="113" type="line"/>
			<point x="45" y="113" type="line"/>
			<point x="45" y="0" type="line"/>
		</contour>
	</outline>
</glyph>
<glyph name="Z" format="2">
	<advance width="546"/>
	<unicode hex="005A"/>
	<anchor x="273" y="0" name="bottom"/>
	<anchor x="273" y="698" name="top"/>
	<outline>
		<contour>
			<point x="511" y="125" type="line" name="hr00"/>
			<point x="199" y="125" type="line"/>
			<point x="503" y="572" type="line"/>
			<point x="503" y="698" type="line"/>
			<point x="51" y="698" type="line"/>
			<point x="51" y="573" type="line"/>
			<point x="338" y="573" type="line"/>
			<point x="35" y="126" type="line"/>
			<point x="35" y="0" type="line"/>
			<point x="511" y="0" type="line"/>
		</contour>
	</outline>
</glyph>
<glyph name="grave" format="2">
	<advance width="540"/>
	<unicode hex="0060"/>
	<anchor x="270" y="540" name="_top"/>
	<outline>
		<contour>
			<point x="255" y="579" type="line" name="hr00"/>
			<point x="337" y="618" type="line"/>
			<point x="245" y="816" type="line"/>
			<point x="126" y="758" type="line"/>
		</contour>
	</outline>
</glyph>
<glyph name="a" format="2">
	<advance width="516"/>
	<unicode hex="0061"/>
	<anchor x="244" y="0" name="bottom"/>
	<anchor x="488" y="0" name="bottomright"/>
	<anchor x="244" y="540" name="top"/>
	<outline>
		<contour>
			<point x="488" y="0" type="line"/>
			<point x="488" y="109" type="line"/>
			<point x="445" y="109" type="line"/>
			<point x="445" y="346" type="line" smooth="yes"/>
			<point x="445" y="472"/>
			<point x="380" y="537"/>
			<point x="244" y="537" type="curve" smooth="yes"/>
			<point x="148" y="537"/>
			<point x="91" y="499"/>
			<point x="48" y="437" type="curve"/>
			<point x="131" y="363" type="line"/>
			<point x="155" y="402"/>
			<point x="185" y="427"/>
			<point x="231" y="427" type="curve" smooth="yes"/>
			<point x="284" y="427"/>
			<point x="305" y="400"/>
			<point x="305" y="346" type="curve" smooth="yes"/>
			<point x="305" y="305" type="line"/>
			<point x="229" y="305" type="line" smooth="yes"/>
			<point x="105" y="305"/>
			<point x="30" y="255"/>
			<point x="30" y="141" type="curve" smooth="yes"/>
			<point x="30" y="46"/>
			<point x="79" y="-12"/>
			<point x="173" y="-12" type="curve" smooth="yes" name="hr01"/>
			<point x="244" y="-12"/>
			<point x="294" y="28"/>
			<point x="305" y="91" type="curve"/>
			<point x="348" y="91" type="line"/>
			<point x="317" y="127" type="line"/>
			<point x="317" y="113" type="line" smooth="yes"/>
			<point x="317" y="21.807"/>
			<point x="359" y="0"/>
			<point x="407" y="0" type="curve" smooth="yes" name="hr02"/>
		</contour>
		<contour>
			<point x="305" y="223" type="line"/>
			<point x="305" y="158" type="line" smooth="yes"/>
			<point x="305" y="109"/>
			<point x="270" y="86"/>
			<point x="229" y="86" type="curve" smooth="yes" name="hr03"/>
			<point x="192" y="86"/>
			<point x="170" y="104"/>
			<point x="170" y="144" type="curve" smooth="yes"/>
			<point x="170" y="163" type="line" smooth="yes"/>
			<point x="170" y="202"/>
			<point x="194" y="223"/>
			<point x="242" y="223" type="curve" smooth="yes"/>
		</contour>
	</outline>
</glyph>
<glyph name="o" format="2">
	<advance width="508"/>
	<unicode hex="006F"/>
	<anchor x="254" y="0" name="bottom"/>
	<anchor x="254" y="540" name="top"/>
	<outline>
		<contour>
			<point x="254" y="-12" type="curve" smooth="yes" name="hr00"/>
			<point x="400" y="-12"/>
			<point x="477" y="77"/>
			<point x="477" y="262" type="curve" smooth="yes"/>
			<point x="477" y="447"/>
			<point x="400" y="537"/>
			<point x="254" y="537" type="curve" smooth="yes"/>
			<point x="108" y="537"/>
			<point x="31" y="447"/>
			<point x="31" y="262" type="curve" smooth="yes"/>
			<point x="31" y="77"/>
			<point x="108" y="-12"/>
		</contour>
		<contour>
			<point x="254" y="99" type="curve" smooth="yes"/>
			<point x="203" y="99"/>
			<point x="177" y="129"/>
			<point x="177" y="189" type="curve" smooth="yes"/>
			<point x="177" y="336" type="line" smooth="yes"/>
			<point x="177" y="396"/>
			<point x="203" y="426"/>
			<point x="254" y="426" type="curve" smooth="yes"/>
			<point x="305" y="426"/>
			<point x="331" y="396"/>
			<point x="331" y="336" type="curve" smooth="yes"/>
			<point x="331" y="189" type="line" smooth="yes"/>
			<point x="331" y="129"/>
			<point x="305" y="99"/>
		</contour>
	</outline>
</glyph>
<glyph name="macron" format="2">
	<advance width="540"/>
	<unicode hex="00AF"/>
	<anchor x="270" y="540" name="_top"/>
	<outline>
		<contour>
			<point x="132" y="624" type="line" name="hr00"/>
			<point x="408" y="624" type="line"/>
			<point x="408" y="727" type="line"/>
			<point x="132" y="727" type="line"/>
		</contour>
	</outline>
</glyph>
<glyph name="acute" format="2">
	<advance width="540"/>
	<unicode hex="00B4"/>
	<anchor x="270" y="540" name="_top"/>
	<outline>
		<contour>
			<point x="414" y="758" type="line" name="hr00"/>
			<point x="295" y="816" type="line"/>
			<point x="203" y="618" type="line"/>
			<point x="285" y="579" type="line"/>
		</contour>
	</outline>
</glyph>
<glyph name="dotlessi" format="2">
	<advance width="262"/>
	<unicode hex="0131"/>
	<anchor x="131" y="540" name="top"/>
	<outline>
		<contour>
			<point x="201" y="0" type="line" name="hr00"/>
			<point x="201" y="525" type="line"/>
			<point x="61" y="525" type="line"/>
			<point x="61" y="0" type="line"/>
		</contour>
	</outline>
</glyph>
<glyph name="tonos" format="2">
	<advance width="539"/>
	<unicode hex="0384"/>
	<anchor x="277" y="540" name="_top"/>
	<outline>
		<contour>
			<point x="385" y="793" type="line"/>
			<point x="260" y="812" type="line"/>
			<point x="229" y="593" type="line"/>
			<point x="319" y="580" type="line"/>
		</contour>
	</outline>
</glyph>
<glyph name="dieresistonos" format="2">
	<advance width="540"/>
	<unicode hex="0385"/>
	<anchor x="293" y="540" name="_top"/>
	<outline>
		<contour>
			<point x="434" y="607" type="curve" smooth="yes"/>
			<point x="473" y="607"/>
			<point x="494" y="627"/>
			<point x="494" y="664" type="curve" smooth="yes"/>
			<point x="494" y="686" type="line" smooth="yes"/>
			<point x="494" y="722"/>
			<point x="473" y="743"/>
			<point x="434" y="743" type="curve" smooth="yes"/>
			<point x="395" y="743"/>
			<point x="375" y="722"/>
			<point x="375" y="686" type="curve" smooth="yes"/>
			<point x="375" y="663" type="line" smooth="yes"/>
			<point x="375" y="627"/>
			<point x="396" y="607"/>
		</contour>
		<contour>
			<point x="164" y="607" type="curve" smooth="yes"/>
			<point x="202" y="607"/>
			<point x="223" y="627"/>
			<point x="223" y="664" type="curve" smooth="yes"/>
			<point x="223" y="686" type="line" smooth="yes"/>
			<point x="223" y="722"/>
			<point x="203" y="743"/>
			<point x="164" y="743" type="curve" smooth="yes"/>
			<point x="125" y="743"/>
			<point x="104" y="722"/>
			<point x="104" y="686" type="curve" smooth="yes"/>
			<point x="104" y="663" type="line" smooth="yes"/>
			<point x="104" y="627"/>
			<point x="125" y="607"/>
		</contour>
		<contour>
			<point x="374" y="795" type="line"/>
			<point x="279" y="812" type="line"/>
			<point x="249" y="590" type="line"/>
			<point x="307" y="580" type="line"/>
		</contour>
	</outline>
</glyph>
<glyph name="Theta" format="2">
	<advance width="653"/>
	<unicode hex="0398"/>
	<outline>
		<contour>
			<point x="327" y="-12" type="curve" smooth="yes"/>
			<point x="500" y="-12"/>
			<point x="609" y="113"/>
			<point x="609" y="349" type="curve" smooth="yes"/>
			<point x="609" y="585"/>
			<point x="500" y="710"/>
			<point x="327" y="710" type="curve" smooth="yes"/>
			<point x="154" y="710"/>
			<point x="44" y="586"/>
			<point x="44" y="349" type="curve" smooth="yes"/>
			<point x="44" y="112"/>
			<point x="154" y="-12"/>
		</contour>
		<contour>
			<point x="327" y="116" type="curve" smooth="yes"/>
			<point x="242" y="116"/>
			<point x="196" y="183"/>
			<point x="196" y="296" type="curve" smooth="yes"/>
			<point x="196" y="402" type="line" smooth="yes"/>
			<point x="196" y="515"/>
			<point x="242" y="582"/>
			<point x="327" y="582" type="curve" smooth="yes"/>
			<point x="411" y="582"/>
			<point x="457" y="516"/>
			<point x="457" y="402" type="curve" smooth="yes"/>
			<point x="457" y="296" type="line" smooth="yes"/>
			<point x="457" y="182"/>
			<point x="411" y="116"/>
		</contour>
		<contour>
			<point x="409" y="290" type="line"/>
			<point x="409" y="416" type="line"/>
			<point x="245" y="416" type="line"/>
			<point x="245" y="290" type="line"/>
		</contour>
	</outline>
</glyph>
<glyph name="Lambda" format="2">
	<advance width="609"/>
	<unicode hex="039B"/>
	<outline>
		<contour>
			<point x="221" y="698" type="line"/>
			<point x="18" y="0" type="line"/>
			<point x="164" y="0" type="line"/>
			<point x="256" y="337" type="line"/>
			<point x="300" y="562" type="line"/>
			<point x="303" y="562" type="line"/>
			<point x="349" y="337" type="line"/>
			<point x="442" y="0" type="line"/>
			<point x="591" y="0" type="line"/>
			<point x="390" y="698" type="line"/>
		</contour>
	</outline>
</glyph>
<glyph name="Xi" format="2">
	<advance width="548"/>
	<unicode hex="039E"/>
	<outline>
		<contour>
			<point x="49" y="570" type="line"/>
			<point x="499" y="570" type="line"/>
			<point x="499" y="698" type="line"/>
			<point x="49" y="698" type="line"/>
		</contour>
		<contour>
			<point x="106" y="290" type="line"/>
			<point x="442" y="290" type="line"/>
			<point x="442" y="416" type="line"/>
			<point x="106" y="416" type="line"/>
		</contour>
		<contour>
			<point x="49" y="0" type="line"/>
			<point x="499" y="0" type="line"/>
			<point x="499" y="128" type="line"/>
			<point x="49" y="128" type="line"/>
		</contour>
	</outline>
</glyph>
<glyph name="Sigma" format="2">
	<advance width="553"/>
	<unicode hex="03A3"/>
	<outline>
		<contour>
			<point x="507" y="0" type="line"/>
			<point x="507" y="127" type="line"/>
			<point x="209" y="127" type="line"/>
			<point x="411" y="355" type="line"/>
			<point x="227" y="571" type="line"/>
			<point x="507" y="571" type="line"/>
			<point x="507" y="698" type="line"/>
			<point x="49" y="698" type="line"/>
			<point x="49" y="570" type="line"/>
			<point x="237" y="350" type="line"/>
			<point x="40" y="128" type="line"/>
			<point x="40" y="0" type="line"/>
		</contour>
	</outline>
</glyph>
<glyph name="Phi" format="2">
	<advance width="764"/>
	<unicode hex="03A6"/>
	<outline>
		<contour>
			<point x="309" y="-42" type="line"/>
			<point x="455" y="-42" type="line"/>
			<point x="455" y="32" type="line"/>
			<point x="463" y="32" type="line" smooth="yes"/>
			<point x="624" y="32"/>
			<point x="729" y="158"/>
			<point x="729" y="355" type="curve" smooth="yes"/>
			<point x="729" y="550"/>
			<point x="624" y="676"/>
			<point x="463" y="676" type="curve" smooth="yes"/>
			<point x="455" y="676" type="line"/>
			<point x="455" y="738" type="line"/>
			<point x="309" y="738" type="line"/>
			<point x="309" y="676" type="line"/>
			<point x="301" y="676" type="line" smooth="yes"/>
			<point x="140" y="676"/>
			<point x="35" y="549"/>
			<point x="35" y="353" type="curve" smooth="yes"/>
			<point x="35" y="159"/>
			<point x="140" y="32"/>
			<point x="301" y="32" type="curve" smooth="yes"/>
			<point x="309" y="32" type="line"/>
		</contour>
		<contour>
			<point x="312" y="150" type="line"/>
			<point x="304" y="150" type="line" smooth="yes"/>
			<point x="244" y="150"/>
			<point x="182" y="217"/>
			<point x="182" y="323" type="curve" smooth="yes"/>
			<point x="182" y="385" type="line" smooth="yes"/>
			<point x="182" y="491"/>
			<point x="244" y="558"/>
			<point x="304" y="558" type="curve" smooth="yes"/>
			<point x="312" y="558" type="line"/>
		</contour>
		<contour>
			<point x="452" y="150" type="line"/>
			<point x="452" y="558" type="line"/>
			<point x="460" y="558" type="line" smooth="yes"/>
			<point x="520" y="558"/>
			<point x="582" y="492"/>
			<point x="582" y="385" type="curve" smooth="yes"/>
			<point x="582" y="323" type="line" smooth="yes"/>
			<point x="582" y="216"/>
			<point x="520" y="150"/>
			<point x="460" y="150" type="curve" smooth="yes"/>
		</contour>
	</outline>
</glyph>
<glyph name="Psi" format="2">
	<advance width="761"/>
	<unicode hex="03A8"/>
	<outline>
		<contour>
			<point x="308" y="0" type="line"/>
			<point x="453" y="0" type="line"/>
			<point x="453" y="179" type="line"/>
			<point x="627" y="179"/>
			<point x="702" y="289"/>
			<point x="702" y="469" type="curve" smooth="yes"/>
			<point x="702" y="698" type="line"/>
			<point x="558" y="698" type="line"/>
			<point x="558" y="469" type="line" smooth="yes"/>
			<point x="558" y="340"/>
			<point x="523" y="298"/>
			<point x="453" y="298" type="curve"/>
			<point x="453" y="698" type="line"/>
			<point x="308" y="698" type="line"/>
			<point x="308" y="298" type="line"/>
			<point x="238" y="298"/>
			<point x="203" y="341"/>
			<point x="203" y="469" type="curve" smooth="yes"/>
			<point x="203" y="698" type="line"/>
			<point x="59" y="698" type="line"/>
			<point x="59" y="469" type="line" smooth="yes"/>
			<point x="59" y="289"/>
			<point x="134" y="179"/>
			<point x="308" y="179" type="curve"/>
		</contour>
	</outline>
</glyph>
<glyph name="alpha" format="2">
	<advance width="602"/>
	<unicode hex="03B1"/>
	<anchor x="261" y="540" name="top"/>
	<outline>
		<contour>
			<point x="572" y="110" type="line"/>
			<point x="522" y="110" type="line"/>
			<point x="468" y="265" type="line"/>
			<point x="573" y="524" type="line"/>
			<point x="434" y="524" type="line"/>
			<point x="414" y="447" type="line"/>
			<point x="404" y="372" type="line"/>
			<point x="388" y="372" type="line"/>
			<point x="366" y="484"/>
			<point x="314" y="536"/>
			<point x="226" y="536" type="curve" smooth="yes"/>
			<point x="110" y="536"/>
			<point x="38" y="438"/>
			<point x="38" y="262" type="curve" smooth="yes"/>
			<point x="38" y="85"/>
			<point x="110" y="-12"/>
			<point x="226" y="-12" type="curve" smooth="yes"/>
			<point x="312" y="-12"/>
			<point x="360" y="41"/>
			<point x="380" y="152" type="curve"/>
			<point x="396" y="152" type="line"/>
			<point x="400" y="102" type="line" smooth="yes"/>
			<point x="406" y="26"/>
			<point x="444" y="0"/>
			<point x="518" y="0" type="curve" smooth="yes"/>
			<point x="572" y="0" type="line"/>
		</contour>
		<contour>
			<point x="238" y="102" type="curve" smooth="yes"/>
			<point x="201" y="102"/>
			<point x="184" y="140"/>
			<point x="184" y="223" type="curve" smooth="yes"/>
			<point x="184" y="301" type="line" smooth="yes"/>
			<point x="184" y="383"/>
			<point x="201" y="422"/>
			<point x="238" y="422" type="curve" smooth="yes"/>
			<point x="264" y="422"/>
			<point x="289" y="395"/>
			<point x="308" y="328" type="curve" smooth="yes"/>
			<point x="327" y="262" type="line"/>
			<point x="308" y="196" type="line" smooth="yes"/>
			<point x="289" y="129"/>
			<point x="264" y="102"/>
		</contour>
	</outline>
</glyph>
<glyph name="beta" format="2">
	<advance width="551"/>
	<unicode hex="03B2"/>
	<outline>
		<contour>
			<point x="60" y="-200" type="line"/>
			<point x="200" y="-200" type="line"/>
			<point x="200" y="85" type="line"/>
			<point x="205" y="85" type="line"/>
			<point x="217" y="29"/>
			<point x="268" y="-12"/>
			<point x="332" y="-12" type="curve" smooth="yes"/>
			<point x="450" y="-12"/>
			<point x="512" y="83"/>
			<point x="512" y="216" type="curve" smooth="yes"/>
			<point x="512" y="315"/>
			<point x="466" y="374"/>
			<point x="379" y="380" type="curve"/>
			<point x="379" y="396" type="line"/>
			<point x="448" y="413"/>
			<point x="484" y="470"/>
			<point x="484" y="562" type="curve" smooth="yes"/>
			<point x="484" y="667"/>
			<point x="423" y="752"/>
			<point x="271" y="752" type="curve" smooth="yes"/>
			<point x="130" y="752"/>
			<point x="60" y="656"/>
			<point x="60" y="483" type="curve" smooth="yes"/>
		</contour>
		<contour>
			<point x="252" y="326" type="line"/>
			<point x="285" y="326" type="line" smooth="yes"/>
			<point x="338" y="326"/>
			<point x="371" y="291"/>
			<point x="371" y="233" type="curve" smooth="yes"/>
			<point x="371" y="200" type="line" smooth="yes"/>
			<point x="371" y="137"/>
			<point x="338" y="100"/>
			<point x="286" y="100" type="curve" smooth="yes"/>
			<point x="233" y="100"/>
			<point x="200" y="129"/>
			<point x="200" y="179" type="curve" smooth="yes"/>
			<point x="200" y="531" type="line" smooth="yes"/>
			<point x="200" y="601"/>
			<point x="230" y="640"/>
			<point x="271" y="640" type="curve" smooth="yes"/>
			<point x="321" y="640"/>
			<point x="343" y="603"/>
			<point x="343" y="548" type="curve" smooth="yes"/>
			<point x="343" y="518" type="line" smooth="yes"/>
			<point x="343" y="469"/>
			<point x="314" y="435"/>
			<point x="280" y="435" type="curve" smooth="yes"/>
			<point x="252" y="435" type="line"/>
		</contour>
	</outline>
</glyph>
<glyph name="gamma" format="2">
	<advance width="489"/>
	<unicode hex="03B3"/>
	<outline>
		<contour>
			<point x="170" y="-200" type="line"/>
			<point x="310" y="-200" type="line"/>
			<point x="310" y="0" type="line"/>
			<point x="482" y="524" type="line"/>
			<point x="350" y="524" type="line"/>
			<point x="284" y="289" type="line"/>
			<point x="254" y="139" type="line"/>
			<point x="238" y="139" type="line"/>
			<point x="211" y="289" type="line"/>
			<point x="183" y="422" type="line" smooth="yes"/>
			<point x="167" y="498"/>
			<point x="131" y="524"/>
			<point x="54" y="524" type="curve" smooth="yes"/>
			<point x="7" y="524" type="line"/>
			<point x="7" y="414" type="line"/>
			<point x="51" y="414" type="line"/>
			<point x="170" y="0" type="line"/>
		</contour>
	</outline>
</glyph>
<glyph name="delta" format="2">
	<advance width="508"/>
	<unicode hex="03B4"/>
	<outline>
		<contour>
			<point x="278" y="448" type="curve"/>
			<point x="194" y="516" type="line"/>
			<point x="194" y="486" type="line"/>
			<point x="108" y="486"/>
			<point x="31" y="408"/>
			<point x="31" y="250" type="curve" smooth="yes"/>
			<point x="31" y="98"/>
			<point x="114" y="-12"/>
			<point x="254" y="-12" type="curve" smooth="yes"/>
			<point x="394" y="-12"/>
			<point x="477" y="93"/>
			<point x="477" y="263" type="curve" smooth="yes"/>
			<point x="477" y="381"/>
			<point x="428" y="475"/>
			<point x="304" y="568" type="curve" smooth="yes"/>
			<point x="212" y="631" type="line"/>
			<point x="212" y="647" type="line"/>
			<point x="297" y="630" type="line"/>
			<point x="435" y="630" type="line"/>
			<point x="435" y="740" type="line"/>
			<point x="79" y="740" type="line"/>
			<point x="79" y="606" type="line"/>
			<point x="245" y="460" type="line" smooth="yes"/>
			<point x="310" y="403"/>
			<point x="332" y="343"/>
			<point x="332" y="259" type="curve" smooth="yes"/>
			<point x="332" y="211" type="line" smooth="yes"/>
			<point x="332" y="140"/>
			<point x="303" y="100"/>
			<point x="254" y="100" type="curve" smooth="yes"/>
			<point x="205" y="100"/>
			<point x="177" y="140"/>
			<point x="177" y="211" type="curve" smooth="yes"/>
			<point x="177" y="300" type="line" smooth="yes"/>
			<point x="177" y="387"/>
			<point x="210" y="445"/>
		</contour>
	</outline>
</glyph>
<glyph name="epsilon" format="2">
	<advance width="476"/>
	<unicode hex="03B5"/>
	<anchor x="250" y="540" name="top"/>
	<outline>
		<contour>
			<point x="387" y="164" type="line"/>
			<point x="353" y="124"/>
			<point x="315" y="99"/>
			<point x="261" y="99" type="curve" smooth="yes"/>
			<point x="198" y="99"/>
			<point x="175" y="120"/>
			<point x="175" y="160" type="curve" smooth="yes"/>
			<point x="175" y="171" type="line" smooth="yes"/>
			<point x="175" y="204"/>
			<point x="192" y="220"/>
			<point x="223" y="220" type="curve" smooth="yes"/>
			<point x="327" y="220" type="line"/>
			<point x="327" y="314" type="line"/>
			<point x="235" y="314" type="line" smooth="yes"/>
			<point x="204" y="314"/>
			<point x="186" y="330"/>
			<point x="186" y="363" type="curve" smooth="yes"/>
			<point x="186" y="373" type="line" smooth="yes"/>
			<point x="186" y="404"/>
			<point x="210" y="425"/>
			<point x="254" y="425" type="curve" smooth="yes"/>
			<point x="299" y="425"/>
			<point x="337" y="405"/>
			<point x="368" y="370" type="curve"/>
			<point x="448" y="452" type="line"/>
			<point x="396" y="507"/>
			<point x="333" y="536"/>
			<point x="244" y="536" type="curve" smooth="yes"/>
			<point x="116" y="536"/>
			<point x="46" y="472"/>
			<point x="46" y="387" type="curve" smooth="yes"/>
			<point x="46" y="325"/>
			<point x="76" y="288"/>
			<point x="146" y="283" type="curve"/>
			<point x="146" y="268" type="line"/>
			<point x="74" y="262"/>
			<point x="34" y="217"/>
			<point x="34" y="147" type="curve" smooth="yes"/>
			<point x="34" y="51"/>
			<point x="116" y="-12"/>
			<point x="243" y="-12" type="curve" smooth="yes"/>
			<point x="338" y="-12"/>
			<point x="410" y="22"/>
			<point x="456" y="78" type="curve"/>
		</contour>
	</outline>
</glyph>
<glyph name="zeta" format="2">
	<advance width="395"/>
	<unicode hex="03B6"/>
	<outline>
		<contour>
			<point x="51" y="630" type="line"/>
			<point x="181" y="630" type="line"/>
			<point x="257" y="650" type="line"/>
			<point x="257" y="625" type="line"/>
			<point x="145" y="480" type="line" smooth="yes"/>
			<point x="46" y="352"/>
			<point x="31" y="291"/>
			<point x="31" y="205" type="curve" smooth="yes"/>
			<point x="31" y="109"/>
			<point x="72" y="43"/>
			<point x="187" y="8" type="curve" smooth="yes"/>
			<point x="253" y="-12" type="line"/>
			<point x="209" y="-130" type="line"/>
			<point x="322" y="-173" type="line"/>
			<point x="372" y="-44" type="line" smooth="yes"/>
			<point x="380" y="-24"/>
			<point x="384" y="-7"/>
			<point x="384" y="8" type="curve" smooth="yes"/>
			<point x="384" y="57"/>
			<point x="353" y="93"/>
			<point x="306" y="107" type="curve" smooth="yes"/>
			<point x="239" y="127" type="line" smooth="yes"/>
			<point x="194" y="140"/>
			<point x="177" y="175"/>
			<point x="177" y="220" type="curve" smooth="yes"/>
			<point x="177" y="234" type="line" smooth="yes"/>
			<point x="177" y="279"/>
			<point x="190" y="329"/>
			<point x="240" y="404" type="curve" smooth="yes"/>
			<point x="390" y="631" type="line"/>
			<point x="390" y="740" type="line"/>
			<point x="51" y="740" type="line"/>
		</contour>
	</outline>
</glyph>
<glyph name="eta" format="2">
	<advance width="552"/>
	<unicode hex="03B7"/>
	<anchor x="283" y="540" name="top"/>
	<outline>
		<contour>
			<point x="214" y="0" type="line"/>
			<point x="214" y="342" type="line" smooth="yes"/>
			<point x="214" y="396"/>
			<point x="255" y="422"/>
			<point x="296" y="422" type="curve" smooth="yes"/>
			<point x="342" y="422"/>
			<point x="357" y="387"/>
			<point x="357" y="317" type="curve" smooth="yes"/>
			<point x="357" y="-200" type="line"/>
			<point x="497" y="-200" type="line"/>
			<point x="497" y="329" type="line" smooth="yes"/>
			<point x="497" y="461"/>
			<point x="446" y="536"/>
			<point x="350" y="536" type="curve" smooth="yes"/>
			<point x="276" y="536"/>
			<point x="238" y="491"/>
			<point x="230" y="431" type="curve"/>
			<point x="179" y="431" type="line"/>
			<point x="213" y="408" type="line"/>
			<point x="213" y="415" type="line" smooth="yes"/>
			<point x="213" y="486"/>
			<point x="173" y="524"/>
			<point x="106" y="524" type="curve" smooth="yes"/>
			<point x="31" y="524" type="line"/>
			<point x="31" y="414" type="line"/>
			<point x="74" y="414" type="line"/>
			<point x="74" y="0" type="line"/>
		</contour>
	</outline>
</glyph>
<glyph name="theta" format="2">
	<advance width="519"/>
	<unicode hex="03B8"/>
	<outline>
		<contour>
			<point x="182" y="479" type="line" smooth="yes"/>
			<point x="182" y="606"/>
			<point x="209" y="641"/>
			<point x="260" y="641" type="curve" smooth="yes"/>
			<point x="311" y="641"/>
			<point x="338" y="605"/>
			<point x="338" y="479" type="curve" smooth="yes"/>
			<point x="338" y="425" type="line"/>
			<point x="182" y="425" type="line"/>
		</contour>
		<contour>
			<point x="260" y="752" type="curve" smooth="yes"/>
			<point x="122" y="752"/>
			<point x="36" y="657"/>
			<point x="36" y="370" type="curve" smooth="yes"/>
			<point x="36" y="83"/>
			<point x="122" y="-12"/>
			<point x="260" y="-12" type="curve" smooth="yes"/>
			<point x="398" y="-12"/>
			<point x="483" y="84"/>
			<point x="483" y="370" type="curve" smooth="yes"/>
			<point x="483" y="656"/>
			<point x="398" y="752"/>
		</contour>
		<contour>
			<point x="260" y="99" type="curve" smooth="yes"/>
			<point x="209" y="99"/>
			<point x="182" y="134"/>
			<point x="182" y="261" type="curve" smooth="yes"/>
			<point x="182" y="316" type="line"/>
			<point x="338" y="316" type="line"/>
			<point x="338" y="261" type="line" smooth="yes"/>
			<point x="338" y="135"/>
			<point x="311" y="99"/>
		</contour>
	</outline>
</glyph>
<glyph name="iota" format="2">
	<advance width="299"/>
	<unicode hex="03B9"/>
	<anchor x="135" y="540" name="top"/>
	<outline>
		<contour>
			<point x="285" y="110" type="line"/>
			<point x="200" y="110" type="line"/>
			<point x="200" y="524" type="line"/>
			<point x="60" y="524" type="line"/>
			<point x="60" y="145" type="line" smooth="yes"/>
			<point x="60" y="51"/>
			<point x="111" y="0"/>
			<point x="207" y="0" type="curve" smooth="yes"/>
			<point x="285" y="0" type="line"/>
		</contour>
	</outline>
</glyph>
<glyph name="kappa" format="2">
	<advance width="526"/>
	<unicode hex="03BA"/>
	<outline>
		<contour>
			<point x="351" y="0" type="line"/>
			<point x="514" y="0" type="line"/>
			<point x="351" y="314" type="line"/>
			<point x="431" y="414" type="line"/>
			<point x="486" y="414" type="line"/>
			<point x="486" y="524" type="line"/>
			<point x="439" y="524" type="line" smooth="yes"/>
			<point x="391" y="524"/>
			<point x="360" y="518"/>
			<point x="332" y="477" type="curve" smooth="yes"/>
			<point x="266" y="380" type="line"/>
			<point x="220" y="296" type="line"/>
			<point x="200" y="296" type="line"/>
			<point x="200" y="524" type="line"/>
			<point x="60" y="524" type="line"/>
			<point x="60" y="0" type="line"/>
			<point x="200" y="0" type="line"/>
			<point x="200" y="155" type="line"/>
			<point x="259" y="222" type="line"/>
		</contour>
	</outline>
</glyph>
<glyph name="lambda" format="2">
	<advance width="487"/>
	<unicode hex="03BB"/>
	<outline>
		<contour>
			<point x="171" y="524" type="line"/>
			<point x="3" y="0" type="line"/>
			<point x="135" y="0" type="line"/>
			<point x="202" y="232" type="line"/>
			<point x="223" y="362" type="line"/>
			<point x="239" y="362" type="line"/>
			<point x="260" y="232" type="line"/>
			<point x="296" y="93" type="line" smooth="yes"/>
			<point x="317" y="24"/>
			<point x="350" y="0"/>
			<point x="420" y="0" type="curve" smooth="yes"/>
			<point x="478" y="0" type="line"/>
			<point x="478" y="110" type="line"/>
			<point x="423" y="110" type="line"/>
			<point x="272" y="647" type="line" smooth="yes"/>
			<point x="250" y="716"/>
			<point x="217" y="740"/>
			<point x="147" y="740" type="curve" smooth="yes"/>
			<point x="66" y="740" type="line"/>
			<point x="66" y="630" type="line"/>
			<point x="143" y="630" type="line"/>
		</contour>
	</outline>
</glyph>
<glyph name="nu" format="2">
	<advance width="489"/>
	<unicode hex="03BD"/>
	<outline>
		<contour>
			<point x="323" y="0" type="line"/>
			<point x="482" y="524" type="line"/>
			<point x="350" y="524" type="line"/>
			<point x="282" y="272" type="line"/>
			<point x="253" y="118" type="line"/>
			<point x="237" y="118" type="line"/>
			<point x="215" y="272" type="line"/>
			<point x="183" y="421" type="line" smooth="yes"/>
			<point x="167" y="496"/>
			<point x="131" y="524"/>
			<point x="54" y="524" type="curve" smooth="yes"/>
			<point x="7" y="524" type="line"/>
			<point x="7" y="414" type="line"/>
			<point x="51" y="414" type="line"/>
			<point x="157" y="0" type="line"/>
		</contour>
	</outline>
</glyph>
<glyph name="xi" format="2">
	<advance width="396"/>
	<unicode hex="03BE"/>
	<outline>
		<contour>
			<point x="397" y="630" type="line"/>
			<point x="397" y="740" type="line"/>
			<point x="28" y="740" type="line"/>
			<point x="28" y="630" type="line"/>
			<point x="130" y="630" type="line"/>
			<point x="130" y="614" type="line"/>
			<point x="88" y="606"/>
			<point x="61" y="563"/>
			<point x="61" y="513" type="curve" smooth="yes"/>
			<point x="61" y="442"/>
			<point x="102" y="402"/>
			<point x="172" y="393" type="curve"/>
			<point x="172" y="378" type="line"/>
			<point x="88" y="369"/>
			<point x="39" y="298"/>
			<point x="39" y="213" type="curve" smooth="yes"/>
			<point x="39" y="108"/>
			<point x="73" y="42"/>
			<point x="187" y="7" type="curve" smooth="yes"/>
			<point x="250" y="-12" type="line"/>
			<point x="205" y="-130" type="line"/>
			<point x="318" y="-173" type="line"/>
			<point x="369" y="-44" type="line" smooth="yes"/>
			<point x="377" y="-24"/>
			<point x="380" y="-6"/>
			<point x="380" y="8" type="curve" smooth="yes"/>
			<point x="380" y="53"/>
			<point x="353" y="91"/>
			<point x="302" y="107" type="curve" smooth="yes"/>
			<point x="239" y="127" type="line" smooth="yes"/>
			<point x="197" y="140"/>
			<point x="179" y="165"/>
			<point x="179" y="216" type="curve" smooth="yes"/>
			<point x="179" y="241" type="line" smooth="yes"/>
			<point x="179" y="290"/>
			<point x="208" y="323"/>
			<point x="240" y="323" type="curve" smooth="yes"/>
			<point x="327" y="323" type="line"/>
			<point x="327" y="433" type="line"/>
			<point x="285" y="433" type="line" smooth="yes"/>
			<point x="231" y="433"/>
			<point x="197" y="469"/>
			<point x="197" y="521" type="curve" smooth="yes"/>
			<point x="197" y="537" type="line" smooth="yes"/>
			<point x="197" y="599"/>
			<point x="226" y="630"/>
			<point x="278" y="630" type="curve" smooth="yes"/>
		</contour>
	</outline>
</glyph>
<glyph name="pi" format="2">
	<advance width="593"/>
	<unicode hex="03C0"/>
	<outline>
		<contour>
			<point x="477" y="414" type="line"/>
			<point x="562" y="414" type="line"/>
			<point x="562" y="524" type="line"/>
			<point x="20" y="524" type="line"/>
			<point x="20" y="414" type="line"/>
			<point x="91" y="414" type="line"/>
			<point x="91" y="0" type="line"/>
			<point x="231" y="0" type="line"/>
			<point x="231" y="414" type="line"/>
			<point x="337" y="414" type="line"/>
			<point x="337" y="145" type="line" smooth="yes"/>
			<point x="337" y="51"/>
			<point x="388" y="0"/>
			<point x="484" y="0" type="curve" smooth="yes"/>
			<point x="536" y="0" type="line"/>
			<point x="536" y="110" type="line"/>
			<point x="477" y="110" type="line"/>
		</contour>
	</outline>
</glyph>
<glyph name="rho" format="2">
	<advance width="522"/>
	<unicode hex="03C1"/>
	<outline>
		<contour>
			<point x="42" y="-200" type="line"/>
			<point x="182" y="-200" type="line"/>
			<point x="182" y="85" type="line"/>
			<point x="198" y="85" type="line"/>
			<point x="204" y="29"/>
			<point x="253" y="-12"/>
			<point x="310" y="-12" type="curve" smooth="yes"/>
			<point x="422" y="-12"/>
			<point x="484" y="85"/>
			<point x="484" y="263" type="curve" smooth="yes"/>
			<point x="484" y="440"/>
			<point x="421" y="536"/>
			<point x="260" y="536" type="curve" smooth="yes"/>
			<point x="109" y="536"/>
			<point x="42" y="439"/>
			<point x="42" y="267" type="curve" smooth="yes"/>
		</contour>
		<contour>
			<point x="261" y="100" type="curve" smooth="yes"/>
			<point x="217" y="100"/>
			<point x="182" y="129"/>
			<point x="182" y="179" type="curve" smooth="yes"/>
			<point x="182" y="314" type="line" smooth="yes"/>
			<point x="182" y="384"/>
			<point x="211" y="424"/>
			<point x="260" y="424" type="curve" smooth="yes"/>
			<point x="309" y="424"/>
			<point x="338" y="384"/>
			<point x="338" y="314" type="curve" smooth="yes"/>
			<point x="338" y="217" type="line" smooth="yes"/>
			<point x="338" y="141"/>
			<point x="302" y="100"/>
		</contour>
	</outline>
</glyph>
<glyph name="sigma1" format="2">
	<advance width="458"/>
	<unicode hex="03C2"/>
	<outline>
		<contour>
			<point x="229" y="-130" type="line"/>
			<point x="342" y="-173" type="line"/>
			<point x="392" y="-44" type="line" smooth="yes"/>
			<point x="399" y="-25"/>
			<point x="404" y="-10"/>
			<point x="404" y="8" type="curve" smooth="yes"/>
			<point x="404" y="53"/>
			<point x="376" y="91"/>
			<point x="326" y="107" type="curve" smooth="yes"/>
			<point x="270" y="125" type="line" smooth="yes"/>
			<point x="206" y="146"/>
			<point x="177" y="188"/>
			<point x="177" y="251" type="curve" smooth="yes"/>
			<point x="177" y="310" type="line" smooth="yes"/>
			<point x="177" y="379"/>
			<point x="203" y="424"/>
			<point x="254" y="424" type="curve" smooth="yes"/>
			<point x="296" y="424"/>
			<point x="324" y="397"/>
			<point x="332" y="351" type="curve"/>
			<point x="445" y="401" type="line"/>
			<point x="418" y="484"/>
			<point x="352" y="536"/>
			<point x="254" y="536" type="curve" smooth="yes"/>
			<point x="114" y="536"/>
			<point x="31" y="431"/>
			<point x="31" y="279" type="curve" smooth="yes"/>
			<point x="31" y="114"/>
			<point x="85" y="46"/>
			<point x="219" y="5" type="curve" smooth="yes"/>
			<point x="273" y="-12" type="line"/>
		</contour>
	</outline>
</glyph>
<glyph name="sigma" format="2">
	<advance width="529"/>
	<unicode hex="03C3"/>
	<outline>
		<contour>
			<point x="509" y="414" type="line"/>
			<point x="509" y="524" type="line"/>
			<point x="253" y="524" type="line"/>
			<point x="114" y="524"/>
			<point x="31" y="423"/>
			<point x="31" y="256" type="curve" smooth="yes"/>
			<point x="31" y="94"/>
			<point x="114" y="-12"/>
			<point x="254" y="-12" type="curve" smooth="yes"/>
			<point x="394" y="-12"/>
			<point x="477" y="94"/>
			<point x="477" y="248" type="curve" smooth="yes"/>
			<point x="477" y="326"/>
			<point x="454" y="374"/>
			<point x="408" y="398" type="curve"/>
			<point x="408" y="414" type="line"/>
		</contour>
		<contour>
			<point x="295" y="414" type="line"/>
			<point x="317" y="391"/>
			<point x="332" y="355"/>
			<point x="332" y="307" type="curve" smooth="yes"/>
			<point x="332" y="210" type="line" smooth="yes"/>
			<point x="332" y="140"/>
			<point x="303" y="100"/>
			<point x="254" y="100" type="curve" smooth="yes"/>
			<point x="205" y="100"/>
			<point x="177" y="140"/>
			<point x="177" y="210" type="curve" smooth="yes"/>
			<point x="177" y="307" type="line" smooth="yes"/>
			<point x="177" y="378"/>
			<point x="205" y="414"/>
			<point x="253" y="414" type="curve" smooth="yes"/>
		</contour>
	</outline>
</glyph>
<glyph name="tau" format="2">
	<advance width="452"/>
	<unicode hex="03C4"/>
	<outline>
		<contour>
			<point x="378" y="0" type="line"/>
			<point x="378" y="110" type="line"/>
			<point x="283" y="110" type="line"/>
			<point x="283" y="414" type="line"/>
			<point x="427" y="414" type="line"/>
			<point x="427" y="524" type="line"/>
			<point x="18" y="524" type="line"/>
			<point x="18" y="414" type="line"/>
			<point x="143" y="414" type="line"/>
			<point x="143" y="145" type="line" smooth="yes"/>
			<point x="143" y="51"/>
			<point x="195" y="0"/>
			<point x="291" y="0" type="curve" smooth="yes"/>
		</contour>
	</outline>
</glyph>
<glyph name="upsilon" format="2">
	<advance width="525"/>
	<unicode hex="03C5"/>
	<anchor x="269" y="540" name="top"/>
	<outline>
		<contour>
			<point x="191" y="524" type="line"/>
			<point x="51" y="524" type="line"/>
			<point x="51" y="240" type="line" smooth="yes"/>
			<point x="51" y="73"/>
			<point x="122" y="-12"/>
			<point x="263" y="-12" type="curve" smooth="yes"/>
			<point x="403" y="-12"/>
			<point x="474" y="73"/>
			<point x="474" y="240" type="curve" smooth="yes"/>
			<point x="474" y="524" type="line"/>
			<point x="334" y="524" type="line"/>
			<point x="334" y="213" type="line" smooth="yes"/>
			<point x="334" y="137"/>
			<point x="312" y="100"/>
			<point x="263" y="100" type="curve" smooth="yes"/>
			<point x="213" y="100"/>
			<point x="191" y="138"/>
			<point x="191" y="213" type="curve" smooth="yes"/>
		</contour>
	</outline>
</glyph>
<glyph name="phi" format="2">
	<advance width="702"/>
	<unicode hex="03C6"/>
	<outline>
		<contour>
			<point x="280" y="-200" type="line"/>
			<point x="417" y="-200" type="line"/>
			<point x="417" y="-12" type="line"/>
			<point x="574" y="-12"/>
			<point x="664" y="90"/>
			<point x="664" y="272" type="curve" smooth="yes"/>
			<point x="664" y="462"/>
			<point x="598" y="536"/>
			<point x="468" y="536" type="curve" smooth="yes"/>
			<point x="337" y="536"/>
			<point x="280" y="447"/>
			<point x="280" y="305" type="curve" smooth="yes"/>
			<point x="280" y="98" type="line"/>
			<point x="227" y="98"/>
			<point x="184" y="139"/>
			<point x="184" y="226" type="curve" smooth="yes"/>
			<point x="184" y="295" type="line" smooth="yes"/>
			<point x="184" y="356"/>
			<point x="199" y="412"/>
			<point x="244" y="451" type="curve"/>
			<point x="154" y="536" type="line"/>
			<point x="77" y="490"/>
			<point x="38" y="398"/>
			<point x="38" y="263" type="curve" smooth="yes"/>
			<point x="38" y="89"/>
			<point x="132" y="-12"/>
			<point x="280" y="-12" type="curve"/>
		</contour>
		<contour>
			<point x="417" y="326" type="line" smooth="yes"/>
			<point x="417" y="400"/>
			<point x="434" y="426"/>
			<point x="468" y="426" type="curve" smooth="yes"/>
			<point x="501" y="426"/>
			<point x="518" y="401"/>
			<point x="518" y="326" type="curve" smooth="yes"/>
			<point x="518" y="226" type="line" smooth="yes"/>
			<point x="518" y="139"/>
			<point x="477" y="98"/>
			<point x="417" y="98" type="curve"/>
		</contour>
	</outline>
</glyph>
<glyph name="chi" format="2">
	<advance width="495"/>
	<unicode hex="03C7"/>
	<outline>
		<contour>
			<point x="17" y="524" type="line"/>
			<point x="17" y="414" type="line"/>
			<point x="77" y="414" type="line"/>
			<point x="169" y="169" type="line"/>
			<point x="10" y="-200" type="line"/>
			<point x="157" y="-200" type="line"/>
			<point x="240" y="67" type="line"/>
			<point x="256" y="67" type="line"/>
			<point x="301" y="-114" type="line" smooth="yes"/>
			<point x="321" y="-172"/>
			<point x="349" y="-200"/>
			<point x="425" y="-200" type="curve" smooth="yes"/>
			<point x="488" y="-200" type="line"/>
			<point x="488" y="-90" type="line"/>
			<point x="428" y="-90" type="line"/>
			<point x="335" y="172" type="line"/>
			<point x="487" y="524" type="line"/>
			<point x="340" y="524" type="line"/>
			<point x="263" y="274" type="line"/>
			<point x="247" y="274" type="line"/>
			<point x="204" y="438" type="line" smooth="yes"/>
			<point x="182" y="502"/>
			<point x="150" y="524"/>
			<point x="80" y="524" type="curve" smooth="yes"/>
		</contour>
	</outline>
</glyph>
<glyph name="psi" format="2">
	<advance width="686"/>
	<unicode hex="03C8"/>
	<outline>
		<contour>
			<point x="412" y="-200" type="line"/>
			<point x="412" y="-12" type="line"/>
			<point x="557" y="-12"/>
			<point x="635" y="75"/>
			<point x="635" y="254" type="curve" smooth="yes"/>
			<point x="635" y="524" type="line"/>
			<point x="495" y="524" type="line"/>
			<point x="495" y="223" type="line" smooth="yes"/>
			<point x="495" y="136"/>
			<point x="466" y="98"/>
			<point x="412" y="98" type="curve"/>
			<point x="412" y="710" type="line"/>
			<point x="275" y="710" type="line"/>
			<point x="275" y="98" type="line"/>
			<point x="220" y="98"/>
			<point x="191" y="137"/>
			<point x="191" y="223" type="curve" smooth="yes"/>
			<point x="191" y="524" type="line"/>
			<point x="51" y="524" type="line"/>
			<point x="51" y="254" type="line" smooth="yes"/>
			<point x="51" y="75"/>
			<point x="130" y="-12"/>
			<point x="275" y="-12" type="curve"/>
			<point x="275" y="-200" type="line"/>
		</contour>
	</outline>
</glyph>
<glyph name="omega" format="2">
	<advance width="697"/>
	<unicode hex="03C9"/>
	<anchor x="349" y="540" name="top"/>
	<outline>
		<contour>
			<point x="419" y="367" type="line"/>
			<point x="279" y="367" type="line"/>
			<point x="279" y="199" type="line" smooth="yes"/>
			<point x="279" y="125"/>
			<point x="265" y="100"/>
			<point x="231" y="100" type="curve" smooth="yes"/>
			<point x="197" y="100"/>
			<point x="184" y="126"/>
			<point x="184" y="199" type="curve" smooth="yes"/>
			<point x="184" y="295" type="line" smooth="yes"/>
			<point x="184" y="356"/>
			<point x="199" y="412"/>
			<point x="244" y="451" type="curve"/>
			<point x="154" y="536" type="line"/>
			<point x="77" y="490"/>
			<point x="38" y="398"/>
			<point x="38" y="248" type="curve" smooth="yes"/>
			<point x="38" y="73"/>
			<point x="106" y="-12"/>
			<point x="212" y="-12" type="curve" smooth="yes"/>
			<point x="283" y="-12"/>
			<point x="328" y="34"/>
			<point x="341" y="124" type="curve"/>
			<point x="356" y="124" type="line"/>
			<point x="369" y="36"/>
			<point x="413" y="-12"/>
			<point x="485" y="-12" type="curve" smooth="yes"/>
			<point x="591" y="-12"/>
			<point x="659" y="72"/>
			<point x="659" y="248" type="curve" smooth="yes"/>
			<point x="659" y="404"/>
			<point x="622" y="490"/>
			<point x="543" y="536" type="curve"/>
			<point x="454" y="451" type="line"/>
			<point x="492" y="414"/>
			<point x="514" y="364"/>
			<point x="514" y="295" type="curve" smooth="yes"/>
			<point x="514" y="199" type="line" smooth="yes"/>
			<point x="514" y="126"/>
			<point x="500" y="100"/>
			<point x="466" y="100" type="curve" smooth="yes"/>
			<point x="432" y="100"/>
			<point x="419" y="126"/>
			<point x="419" y="199" type="curve" smooth="yes"/>
		</contour>
	</outline>
</glyph>
<glyph name="uni0402" format="2">
	<advance width="728"/>
	<unicode hex="0402"/>
	<outline>
		<contour>
			<point x="422" y="-182" type="line"/>
			<point x="469" y="-182" type="line" smooth="yes"/>
			<point x="603" y="-182"/>
			<point x="680" y="-98"/>
			<point x="680" y="63" type="curve" smooth="yes"/>
			<point x="680" y="189" type="line" smooth="yes"/>
			<point x="680" y="359"/>
			<point x="604" y="445"/>
			<point x="453" y="445" type="curve" smooth="yes"/>
			<point x="404" y="445"/>
			<point x="368" y="436"/>
			<point x="340" y="422" type="curve"/>
			<point x="335" y="422" type="line"/>
			<point x="335" y="570" type="line"/>
			<point x="502" y="570" type="line"/>
			<point x="502" y="698" type="line"/>
			<point x="25" y="698" type="line"/>
			<point x="25" y="570" type="line"/>
			<point x="192" y="570" type="line"/>
			<point x="192" y="0" type="line"/>
			<point x="335" y="0" type="line"/>
			<point x="335" y="301" type="line"/>
			<point x="362" y="314"/>
			<point x="394" y="320"/>
			<point x="439" y="320" type="curve" smooth="yes"/>
			<point x="505" y="320"/>
			<point x="537" y="277"/>
			<point x="537" y="194" type="curve" smooth="yes"/>
			<point x="537" y="68" type="line" smooth="yes"/>
			<point x="537" y="16"/>
			<point x="529" y="-26"/>
			<point x="516" y="-49" type="curve"/>
			<point x="422" y="-49" type="line"/>
		</contour>
	</outline>
</glyph>
<glyph name="uni0404" format="2">
	<advance width="608"/>
	<unicode hex="0404"/>
	<outline>
		<contour>
			<point x="334" y="-12" type="curve" smooth="yes"/>
			<point x="461" y="-12"/>
			<point x="536" y="47"/>
			<point x="582" y="147" type="curve"/>
			<point x="465" y="219" type="line"/>
			<point x="446" y="159"/>
			<point x="410" y="116"/>
			<point x="334" y="116" type="curve" smooth="yes"/>
			<point x="249" y="116"/>
			<point x="196" y="176"/>
			<point x="196" y="292" type="curve" smooth="yes"/>
			<point x="196" y="332" type="line"/>
			<point x="155" y="290" type="line"/>
			<point x="398" y="290" type="line"/>
			<point x="398" y="416" type="line"/>
			<point x="155" y="416" type="line"/>
			<point x="196" y="383" type="line"/>
			<point x="196" y="410" type="line" smooth="yes"/>
			<point x="196" y="507"/>
			<point x="238" y="582"/>
			<point x="334" y="582" type="curve" smooth="yes"/>
			<point x="410" y="582"/>
			<point x="438" y="544"/>
			<point x="459" y="486" type="curve"/>
			<point x="579" y="554" type="line"/>
			<point x="526" y="656"/>
			<point x="455" y="710"/>
			<point x="334" y="710" type="curve" smooth="yes"/>
			<point x="153" y="710"/>
			<point x="44" y="580"/>
			<point x="44" y="344" type="curve" smooth="yes"/>
			<point x="44" y="108"/>
			<point x="153" y="-12"/>
		</contour>
	</outline>
</glyph>
<glyph name="uni0409" format="2">
	<advance width="946"/>
	<unicode hex="0409"/>
	<outline>
		<contour>
			<point x="19" y="-5" type="line"/>
			<point x="67" y="-5" type="line" smooth="yes"/>
			<point x="127" y="-5"/>
			<point x="173" y="8"/>
			<point x="211" y="50" type="curve" smooth="yes"/>
			<point x="256" y="100"/>
			<point x="292" y="203"/>
			<point x="292" y="460" type="curve" smooth="yes"/>
			<point x="292" y="570" type="line"/>
			<point x="434" y="570" type="line"/>
			<point x="434" y="0" type="line"/>
			<point x="725" y="0" type="line" smooth="yes"/>
			<point x="842" y="0"/>
			<point x="917" y="89"/>
			<point x="917" y="221" type="curve" smooth="yes"/>
			<point x="917" y="353"/>
			<point x="842" y="443"/>
			<point x="725" y="443" type="curve" smooth="yes"/>
			<point x="577" y="443" type="line"/>
			<point x="577" y="698" type="line"/>
			<point x="152" y="698" type="line"/>
			<point x="152" y="479" type="line" smooth="yes"/>
			<point x="152" y="259"/>
			<point x="131" y="176"/>
			<point x="95" y="128" type="curve"/>
			<point x="19" y="128" type="line"/>
		</contour>
		<contour>
			<point x="577" y="125" type="line"/>
			<point x="577" y="318" type="line"/>
			<point x="707" y="318" type="line" smooth="yes"/>
			<point x="745" y="318"/>
			<point x="769" y="292"/>
			<point x="769" y="244" type="curve" smooth="yes"/>
			<point x="769" y="199" type="line" smooth="yes"/>
			<point x="769" y="151"/>
			<point x="745" y="125"/>
			<point x="707" y="125" type="curve" smooth="yes"/>
		</contour>
	</outline>
</glyph>
<glyph name="uni0411" format="2">
	<advance width="594"/>
	<unicode hex="0411"/>
	<outline>
		<contour>
			<point x="68" y="0" type="line"/>
			<point x="369" y="0" type="line" smooth="yes"/>
			<point x="486" y="0"/>
			<point x="561" y="89"/>
			<point x="561" y="214" type="curve" smooth="yes"/>
			<point x="561" y="341"/>
			<point x="486" y="430"/>
			<point x="369" y="430" type="curve" smooth="yes"/>
			<point x="212" y="430" type="line"/>
			<point x="212" y="570" type="line"/>
			<point x="498" y="570" type="line"/>
			<point x="498" y="698" type="line"/>
			<point x="68" y="698" type="line"/>
		</contour>
		<contour>
			<point x="212" y="125" type="line"/>
			<point x="212" y="305" type="line"/>
			<point x="351" y="305" type="line" smooth="yes"/>
			<point x="389" y="305"/>
			<point x="413" y="280"/>
			<point x="413" y="231" type="curve" smooth="yes"/>
			<point x="413" y="199" type="line" smooth="yes"/>
			<point x="413" y="151"/>
			<point x="389" y="125"/>
			<point x="351" y="125" type="curve" smooth="yes"/>
		</contour>
	</outline>
</glyph>
<glyph name="uni0413" format="2">
	<advance width="464"/>
	<unicode hex="0413"/>
	<anchor x="254" y="698" name="top"/>
	<outline>
		<contour>
			<point x="68" y="0" type="line"/>
			<point x="212" y="0" type="line"/>
			<point x="212" y="570" type="line"/>
			<point x="440" y="570" type="line"/>
			<point x="440" y="698" type="line"/>
			<point x="68" y="698" type="line"/>
		</contour>
	</outline>
</glyph>
<glyph name="uni0414" format="2">
	<advance width="742"/>
	<unicode hex="0414"/>
	<outline>
		<contour>
			<point x="16" y="-150" type="line"/>
			<point x="151" y="-150" type="line"/>
			<point x="151" y="0" type="line"/>
			<point x="583" y="0" type="line"/>
			<point x="583" y="-150" type="line"/>
			<point x="719" y="-150" type="line"/>
			<point x="719" y="128" type="line"/>
			<point x="616" y="128" type="line"/>
			<point x="616" y="698" type="line"/>
			<point x="157" y="698" type="line"/>
			<point x="157" y="478" type="line" smooth="yes"/>
			<point x="157" y="270"/>
			<point x="125" y="177"/>
			<point x="85" y="128" type="curve"/>
			<point x="16" y="128" type="line"/>
		</contour>
		<contour>
			<point x="247" y="128" type="line"/>
			<point x="247" y="131" type="line"/>
			<point x="282" y="191"/>
			<point x="297" y="290"/>
			<point x="297" y="459" type="curve" smooth="yes"/>
			<point x="297" y="571" type="line"/>
			<point x="472" y="571" type="line"/>
			<point x="472" y="128" type="line"/>
		</contour>
	</outline>
</glyph>
<glyph name="uni0418" format="2">
	<advance width="654"/>
	<unicode hex="0418"/>
	<anchor x="329" y="698" name="top"/>
	<outline>
		<contour>
			<point x="68" y="0" type="line"/>
			<point x="197" y="0" type="line"/>
			<point x="396" y="367" type="line"/>
			<point x="444" y="475" type="line"/>
			<point x="460" y="475" type="line"/>
			<point x="446" y="352" type="line"/>
			<point x="446" y="0" type="line"/>
			<point x="586" y="0" type="line"/>
			<point x="586" y="698" type="line"/>
			<point x="457" y="698" type="line"/>
			<point x="258" y="331" type="line"/>
			<point x="210" y="223" type="line"/>
			<point x="194" y="223" type="line"/>
			<point x="208" y="346" type="line"/>
			<point x="208" y="698" type="line"/>
			<point x="68" y="698" type="line"/>
		</contour>
	</outline>
</glyph>
<glyph name="uni0423" format="2">
	<advance width="571"/>
	<unicode hex="0423"/>
	<anchor x="287" y="698" name="top"/>
	<outline>
		<contour>
			<point x="105" y="0" type="line"/>
			<point x="198" y="0" type="line" smooth="yes"/>
			<point x="274" y="0"/>
			<point x="312" y="24"/>
			<point x="339" y="97" type="curve" smooth="yes"/>
			<point x="559" y="698" type="line"/>
			<point x="419" y="698" type="line"/>
			<point x="343" y="470" type="line"/>
			<point x="304" y="332" type="line"/>
			<point x="291" y="332" type="line"/>
			<point x="246" y="469" type="line"/>
			<point x="161" y="698" type="line"/>
			<point x="10" y="698" type="line"/>
			<point x="228" y="171" type="line"/>
			<point x="217" y="128" type="line"/>
			<point x="105" y="128" type="line"/>
		</contour>
	</outline>
</glyph>
<glyph name="uni0424" format="2">
	<advance width="819"/>
	<unicode hex="0424"/>
	<outline>
		<contour>
			<point x="337" y="-42" type="line"/>
			<point x="482" y="-42" type="line"/>
			<point x="482" y="48" type="line"/>
			<point x="519" y="48" type="line" smooth="yes"/>
			<point x="678" y="48"/>
			<point x="789" y="178"/>
			<point x="789" y="347" type="curve" smooth="yes"/>
			<point x="789" y="516"/>
			<point x="682" y="648"/>
			<point x="519" y="648" type="curve" smooth="yes"/>
			<point x="482" y="648" type="line"/>
			<point x="482" y="738" type="line"/>
			<point x="337" y="738" type="line"/>
			<point x="337" y="648" type="line"/>
			<point x="300" y="648" type="line" smooth="yes"/>
			<point x="137" y="648"/>
			<point x="30" y="516"/>
			<point x="30" y="347" type="curve" smooth="yes"/>
			<point x="30" y="178"/>
			<point x="141" y="48"/>
			<point x="300" y="48" type="curve" smooth="yes"/>
			<point x="337" y="48" type="line"/>
		</contour>
		<contour>
			<point x="300" y="166" type="line" smooth="yes"/>
			<point x="217" y="166"/>
			<point x="177" y="230"/>
			<point x="177" y="317" type="curve" smooth="yes"/>
			<point x="177" y="379" type="line" smooth="yes"/>
			<point x="177" y="464"/>
			<point x="213" y="530"/>
			<point x="300" y="530" type="curve" smooth="yes"/>
			<point x="339" y="530" type="line"/>
			<point x="339" y="166" type="line"/>
		</contour>
		<contour>
			<point x="479" y="166" type="line"/>
			<point x="479" y="530" type="line"/>
			<point x="519" y="530" type="line" smooth="yes"/>
			<point x="606" y="530"/>
			<point x="642" y="464"/>
			<point x="642" y="379" type="curve" smooth="yes"/>
			<point x="642" y="317" type="line" smooth="yes"/>
			<point x="642" y="230"/>
			<point x="602" y="166"/>
			<point x="519" y="166" type="curve" smooth="yes"/>
		</contour>
	</outline>
</glyph>
<glyph name="uni0428" format="2">
	<advance width="935"/>
	<unicode hex="0428"/>
	<outline>
		<contour>
			<point x="68" y="0" type="line"/>
			<point x="867" y="0" type="line"/>
			<point x="867" y="698" type="line"/>
			<point x="723" y="698" type="line"/>
			<point x="723" y="128" type="line"/>
			<point x="540" y="128" type="line"/>
			<point x="540" y="698" type="line"/>
			<point x="397" y="698" type="line"/>
			<point x="397" y="128" type="line"/>
			<point x="212" y="128" type="line"/>
			<point x="212" y="698" type="line"/>
			<point x="68" y="698" type="line"/>
		</contour>
	</outline>
</glyph>
<glyph name="uni0429" format="2">
	<advance width="993"/>
	<unicode hex="0429"/>
	<outline>
		<contour>
			<point x="835" y="-150" type="line"/>
			<point x="970" y="-150" type="line"/>
			<point x="970" y="128" type="line"/>
			<point x="867" y="128" type="line"/>
			<point x="867" y="698" type="line"/>
			<point x="723" y="698" type="line"/>
			<point x="723" y="128" type="line"/>
			<point x="539" y="128" type="line"/>
			<point x="539" y="698" type="line"/>
			<point x="396" y="698" type="line"/>
			<point x="396" y="128" type="line"/>
			<point x="212" y="128" type="line"/>
			<point x="212" y="698" type="line"/>
			<point x="68" y="698" type="line"/>
			<point x="68" y="0" type="line"/>
			<point x="835" y="0" type="line"/>
		</contour>
	</outline>
</glyph>
<glyph name="uni0431" format="2">
	<advance width="511"/>
	<unicode hex="0431"/>
	<outline>
		<contour>
			<point x="258" y="-12" type="curve" smooth="yes"/>
			<point x="398" y="-12"/>
			<point x="480" y="94"/>
			<point x="480" y="262" type="curve" smooth="yes"/>
			<point x="480" y="416"/>
			<point x="417" y="511"/>
			<point x="315" y="511" type="curve" smooth="yes"/>
			<point x="253" y="511"/>
			<point x="208" y="476"/>
			<point x="197" y="407" type="curve"/>
			<point x="181" y="407" type="line"/>
			<point x="183" y="547"/>
			<point x="210" y="591"/>
			<point x="294" y="600" type="curve" smooth="yes"/>
			<point x="449" y="617" type="line"/>
			<point x="449" y="752" type="line"/>
			<point x="295" y="735" type="line" smooth="yes"/>
			<point x="116" y="715"/>
			<point x="35" y="594"/>
			<point x="35" y="323" type="curve" smooth="yes"/>
			<point x="35" y="238"/>
			<point x="47" y="168"/>
			<point x="69" y="116" type="curve" smooth="yes"/>
			<point x="107" y="25"/>
			<point x="174" y="-12"/>
		</contour>
		<contour>
			<point x="258" y="100" type="curve" smooth="yes"/>
			<point x="209" y="100"/>
			<point x="181" y="140"/>
			<point x="181" y="211" type="curve" smooth="yes"/>
			<point x="181" y="292" type="line" smooth="yes"/>
			<point x="181" y="358"/>
			<point x="209" y="399"/>
			<point x="258" y="399" type="curve" smooth="yes"/>
			<point x="307" y="399"/>
			<point x="336" y="359"/>
			<point x="336" y="288" type="curve" smooth="yes"/>
			<point x="336" y="210" type="line" smooth="yes"/>
			<point x="336" y="139"/>
			<point x="307" y="100"/>
		</contour>
	</outline>
</glyph>
<glyph name="uni0432" format="2">
	<advance width="520"/>
	<unicode hex="0432"/>
	<outline>
		<contour>
			<point x="60" y="0" type="line"/>
			<point x="334" y="0" type="line" smooth="yes"/>
			<point x="429" y="0"/>
			<point x="486" y="61"/>
			<point x="486" y="152" type="curve" smooth="yes"/>
			<point x="486" y="222"/>
			<point x="445" y="264"/>
			<point x="367" y="268" type="curve"/>
			<point x="367" y="284" type="line"/>
			<point x="439" y="289"/>
			<point x="468" y="328"/>
			<point x="468" y="392" type="curve" smooth="yes"/>
			<point x="468" y="471"/>
			<point x="420" y="524"/>
			<point x="333" y="524" type="curve" smooth="yes"/>
			<point x="60" y="524" type="line"/>
		</contour>
		<contour>
			<point x="196" y="100" type="line"/>
			<point x="196" y="223" type="line"/>
			<point x="309" y="223" type="line" smooth="yes"/>
			<point x="331" y="223"/>
			<point x="345" y="205"/>
			<point x="345" y="176" type="curve" smooth="yes"/>
			<point x="345" y="146" type="line" smooth="yes"/>
			<point x="345" y="117"/>
			<point x="331" y="100"/>
			<point x="309" y="100" type="curve" smooth="yes"/>
		</contour>
		<contour>
			<point x="196" y="308" type="line"/>
			<point x="196" y="424" type="line"/>
			<point x="292" y="424" type="line" smooth="yes"/>
			<point x="313" y="424"/>
			<point x="327" y="407"/>
			<point x="327" y="379" type="curve" smooth="yes"/>
			<point x="327" y="353" type="line" smooth="yes"/>
			<point x="327" y="326"/>
			<point x="314" y="308"/>
			<point x="292" y="308" type="curve" smooth="yes"/>
		</contour>
	</outline>
</glyph>
<glyph name="uni0433" format="2">
	<advance width="400"/>
	<unicode hex="0433"/>
	<anchor x="213" y="540" name="top"/>
	<outline>
		<contour>
			<point x="60" y="0" type="line"/>
			<point x="200" y="0" type="line"/>
			<point x="200" y="414" type="line"/>
			<point x="383" y="414" type="line"/>
			<point x="383" y="524" type="line"/>
			<point x="60" y="524" type="line"/>
		</contour>
	</outline>
</glyph>
<glyph name="uni0434" format="2">
	<advance width="598"/>
	<unicode hex="0434"/>
	<outline>
		<contour>
			<point x="9" y="-140" type="line"/>
			<point x="136" y="-140" type="line"/>
			<point x="136" y="0" type="line"/>
			<point x="459" y="0" type="line"/>
			<point x="459" y="-140" type="line"/>
			<point x="586" y="-140" type="line"/>
			<point x="586" y="110" type="line"/>
			<point x="504" y="110" type="line"/>
			<point x="504" y="524" type="line"/>
			<point x="117" y="524" type="line"/>
			<point x="117" y="375" type="line" smooth="yes"/>
			<point x="117" y="240"/>
			<point x="104" y="163"/>
			<point x="72" y="110" type="curve"/>
			<point x="9" y="110" type="line"/>
		</contour>
		<contour>
			<point x="219" y="110" type="line"/>
			<point x="237" y="150"/>
			<point x="251" y="224"/>
			<point x="251" y="367" type="curve" smooth="yes"/>
			<point x="251" y="414" type="line"/>
			<point x="364" y="414" type="line"/>
			<point x="364" y="110" type="line"/>
		</contour>
	</outline>
</glyph>
<glyph name="uni0437" format="2">
	<advance width="481"/>
	<unicode hex="0437"/>
	<anchor x="236" y="540" name="top"/>
	<outline>
		<contour>
			<point x="229" y="-12" type="curve" smooth="yes"/>
			<point x="365" y="-12"/>
			<point x="447" y="51"/>
			<point x="447" y="155" type="curve" smooth="yes"/>
			<point x="447" y="222"/>
			<point x="412" y="264"/>
			<point x="334" y="268" type="curve"/>
			<point x="334" y="284" type="line"/>
			<point x="406" y="289"/>
			<point x="435" y="327"/>
			<point x="435" y="393" type="curve" smooth="yes"/>
			<point x="435" y="477"/>
			<point x="368" y="536"/>
			<point x="236" y="536" type="curve" smooth="yes"/>
			<point x="146" y="536"/>
			<point x="78" y="499"/>
			<point x="30" y="436" type="curve"/>
			<point x="113" y="362" type="line"/>
			<point x="137" y="402"/>
			<point x="180" y="425"/>
			<point x="226" y="425" type="curve" smooth="yes"/>
			<point x="271" y="425"/>
			<point x="294" y="405"/>
			<point x="294" y="373" type="curve" smooth="yes"/>
			<point x="294" y="362" type="line" smooth="yes"/>
			<point x="294" y="330"/>
			<point x="277" y="314"/>
			<point x="245" y="314" type="curve" smooth="yes"/>
			<point x="152" y="314" type="line"/>
			<point x="152" y="220" type="line"/>
			<point x="257" y="220" type="line" smooth="yes"/>
			<point x="289" y="220"/>
			<point x="306" y="204"/>
			<point x="306" y="171" type="curve" smooth="yes"/>
			<point x="306" y="160" type="line" smooth="yes"/>
			<point x="306" y="122"/>
			<point x="281" y="99"/>
			<point x="230" y="99" type="curve" smooth="yes"/>
			<point x="182" y="99"/>
			<point x="138" y="121"/>
			<point x="102" y="166" type="curve"/>
			<point x="20" y="83" type="line"/>
			<point x="76" y="20"/>
			<point x="139" y="-12"/>
		</contour>
	</outline>
</glyph>
<glyph name="uni0438" format="2">
	<advance width="552"/>
	<unicode hex="0438"/>
	<anchor x="277" y="0" name="bottom"/>
	<anchor x="277" y="540" name="top"/>
	<outline>
		<contour>
			<point x="60" y="0" type="line"/>
			<point x="185" y="0" type="line"/>
			<point x="309" y="230" type="line"/>
			<point x="359" y="342" type="line"/>
			<point x="373" y="342" type="line"/>
			<point x="355" y="220" type="line"/>
			<point x="355" y="0" type="line"/>
			<point x="492" y="0" type="line"/>
			<point x="492" y="524" type="line"/>
			<point x="368" y="524" type="line"/>
			<point x="243" y="294" type="line"/>
			<point x="193" y="182" type="line"/>
			<point x="179" y="182" type="line"/>
			<point x="197" y="304" type="line"/>
			<point x="197" y="524" type="line"/>
			<point x="60" y="524" type="line"/>
		</contour>
	</outline>
</glyph>
<glyph name="uni0442" format="2">
	<advance width="445"/>
	<unicode hex="0442"/>
	<outline>
		<contour>
			<point x="152" y="0" type="line"/>
			<point x="292" y="0" type="line"/>
			<point x="292" y="414" type="line"/>
			<point x="427" y="414" type="line"/>
			<point x="427" y="524" type="line"/>
			<point x="18" y="524" type="line"/>
			<point x="18" y="414" type="line"/>
			<point x="152" y="414" type="line"/>
		</contour>
	</outline>
</glyph>
<glyph name="uni0444" format="2">
	<advance width="729"/>
	<unicode hex="0444"/>
	<outline>
		<contour>
			<point x="294" y="-200" type="line"/>
			<point x="434" y="-200" type="line"/>
			<point x="434" y="56" type="line"/>
			<point x="452" y="56" type="line"/>
			<point x="461" y="9"/>
			<point x="498" y="-12"/>
			<point x="543" y="-12" type="curve" smooth="yes"/>
			<point x="648" y="-12"/>
			<point x="694" y="67"/>
			<point x="694" y="262" type="curve" smooth="yes"/>
			<point x="694" y="456"/>
			<point x="648" y="536"/>
			<point x="543" y="536" type="curve" smooth="yes"/>
			<point x="494" y="536"/>
			<point x="460" y="510"/>
			<point x="452" y="466" type="curve"/>
			<point x="434" y="466" type="line"/>
			<point x="434" y="710" type="line"/>
			<point x="294" y="710" type="line"/>
			<point x="294" y="466" type="line"/>
			<point x="276" y="466" type="line"/>
			<point x="268" y="512"/>
			<point x="232" y="536"/>
			<point x="186" y="536" type="curve" smooth="yes"/>
			<point x="81" y="536"/>
			<point x="35" y="456"/>
			<point x="35" y="262" type="curve" smooth="yes"/>
			<point x="35" y="67"/>
			<point x="81" y="-12"/>
			<point x="186" y="-12" type="curve" smooth="yes"/>
			<point x="230" y="-12"/>
			<point x="267" y="8"/>
			<point x="276" y="56" type="curve"/>
			<point x="294" y="56" type="line"/>
		</contour>
		<contour>
			<point x="243" y="90" type="curve" smooth="yes"/>
			<point x="196" y="90"/>
			<point x="179" y="129"/>
			<point x="179" y="211" type="curve" smooth="yes"/>
			<point x="179" y="313" type="line" smooth="yes"/>
			<point x="179" y="395"/>
			<point x="196" y="434"/>
			<point x="243" y="434" type="curve" smooth="yes"/>
			<point x="281" y="434"/>
			<point x="294" y="409"/>
			<point x="294" y="375" type="curve" smooth="yes"/>
			<point x="294" y="149" type="line" smooth="yes"/>
			<point x="294" y="115"/>
			<point x="281" y="90"/>
		</contour>
		<contour>
			<point x="486" y="90" type="curve" smooth="yes"/>
			<point x="448" y="90"/>
			<point x="434" y="114"/>
			<point x="434" y="149" type="curve" smooth="yes"/>
			<point x="434" y="375" type="line" smooth="yes"/>
			<point x="434" y="410"/>
			<point x="448" y="434"/>
			<point x="486" y="434" type="curve" smooth="yes"/>
			<point x="532" y="434"/>
			<point x="550" y="397"/>
			<point x="550" y="313" type="curve" smooth="yes"/>
			<point x="550" y="211" type="line" smooth="yes"/>
			<point x="550" y="127"/>
			<point x="532" y="90"/>
		</contour>
	</outline>
</glyph>
<glyph name="uni0446" format="2">
	<advance width="572"/>
	<unicode hex="0446"/>
	<outline>
		<contour>
			<point x="434" y="-140" type="line"/>
			<point x="560" y="-140" type="line"/>
			<point x="560" y="110" type="line"/>
			<point x="479" y="110" type="line"/>
			<point x="479" y="524" type="line"/>
			<point x="339" y="524" type="line"/>
			<point x="339" y="110" type="line"/>
			<point x="200" y="110" type="line"/>
			<point x="200" y="524" type="line"/>
			<point x="60" y="524" type="line"/>
			<point x="60" y="0" type="line"/>
			<point x="434" y="0" type="line"/>
		</contour>
	</outline>
</glyph>
<glyph name="uni0447" format="2">
	<advance width="524"/>
	<unicode hex="0447"/>
	<anchor x="255" y="540" name="top"/>
	<outline>
		<contour>
			<point x="324" y="0" type="line"/>
			<point x="464" y="0" type="line"/>
			<point x="464" y="524" type="line"/>
			<point x="324" y="524" type="line"/>
			<point x="324" y="325" type="line" smooth="yes"/>
			<point x="324" y="294"/>
			<point x="301" y="271"/>
			<point x="253" y="271" type="curve" smooth="yes"/>
			<point x="204" y="271"/>
			<point x="185" y="294"/>
			<point x="185" y="347" type="curve" smooth="yes"/>
			<point x="185" y="524" type="line"/>
			<point x="45" y="524" type="line"/>
			<point x="45" y="340" type="line" smooth="yes"/>
			<point x="45" y="217"/>
			<point x="91" y="156"/>
			<point x="198" y="156" type="curve" smooth="yes"/>
			<point x="257" y="156"/>
			<point x="296" y="183"/>
			<point x="307" y="225" type="curve"/>
			<point x="324" y="225" type="line"/>
		</contour>
	</outline>
</glyph>
<glyph name="uni0449" format="2">
	<advance width="797"/>
	<unicode hex="0449"/>
	<outline>
		<contour>
			<point x="658" y="-140" type="line"/>
			<point x="785" y="-140" type="line"/>
			<point x="785" y="110" type="line"/>
			<point x="703" y="110" type="line"/>
			<point x="703" y="524" type="line"/>
			<point x="563" y="524" type="line"/>
			<point x="563" y="110" type="line"/>
			<point x="451" y="110" type="line"/>
			<point x="451" y="524" type="line"/>
			<point x="311" y="524" type="line"/>
			<point x="311" y="110" type="line"/>
			<point x="200" y="110" type="line"/>
			<point x="200" y="524" type="line"/>
			<point x="60" y="524" type="line"/>
			<point x="60" y="0" type="line"/>
			<point x="658" y="0" type="line"/>
		</contour>
	</outline>
</glyph>
<glyph name="uni0454" format="2">
	<advance width="484"/>
	<unicode hex="0454"/>
	<outline>
		<contour>
			<point x="263" y="-12" type="curve" smooth="yes"/>
			<point x="370" y="-12"/>
			<point x="419" y="31"/>
			<point x="464" y="119" type="curve"/>
			<point x="357" y="175" type="line"/>
			<point x="340" y="124"/>
			<point x="314" y="99"/>
			<point x="263" y="99" type="curve" smooth="yes"/>
			<point x="203" y="99"/>
			<point x="177" y="143"/>
			<point x="177" y="213" type="curve" smooth="yes"/>
			<point x="177" y="219" type="line"/>
			<point x="318" y="219" type="line"/>
			<point x="318" y="313" type="line"/>
			<point x="177" y="313" type="line"/>
			<point x="177" y="317" type="line" smooth="yes"/>
			<point x="177" y="380"/>
			<point x="206" y="425"/>
			<point x="260" y="425" type="curve" smooth="yes"/>
			<point x="317" y="425"/>
			<point x="338" y="399"/>
			<point x="350" y="354" type="curve"/>
			<point x="461" y="412" type="line"/>
			<point x="428" y="484"/>
			<point x="373" y="536"/>
			<point x="260" y="536" type="curve" smooth="yes"/>
			<point x="108" y="536"/>
			<point x="31" y="430"/>
			<point x="31" y="262" type="curve" smooth="yes"/>
			<point x="31" y="95"/>
			<point x="110" y="-12"/>
		</contour>
	</outline>
</glyph>
<glyph name="uni0459" format="2">
	<advance width="782"/>
	<unicode hex="0459"/>
	<outline>
		<contour>
			<point x="14" y="-5" type="line"/>
			<point x="55" y="-5" type="line" smooth="yes"/>
			<point x="113" y="-5"/>
			<point x="152" y="7"/>
			<point x="180" y="37" type="curve" smooth="yes"/>
			<point x="217" y="77"/>
			<point x="246" y="159"/>
			<point x="246" y="353" type="curve" smooth="yes"/>
			<point x="246" y="414" type="line"/>
			<point x="344" y="414" type="line"/>
			<point x="344" y="0" type="line"/>
			<point x="597" y="0" type="line" smooth="yes"/>
			<point x="689" y="0"/>
			<point x="761" y="65"/>
			<point x="761" y="183" type="curve" smooth="yes"/>
			<point x="761" y="299"/>
			<point x="689" y="364"/>
			<point x="597" y="364" type="curve" smooth="yes"/>
			<point x="484" y="364" type="line"/>
			<point x="484" y="524" type="line"/>
			<point x="111" y="524" type="line"/>
			<point x="111" y="360" type="line" smooth="yes"/>
			<point x="111" y="213"/>
			<point x="98" y="147"/>
			<point x="75" y="110" type="curve"/>
			<point x="14" y="110" type="line"/>
		</contour>
		<contour>
			<point x="484" y="101" type="line"/>
			<point x="484" y="263" type="line"/>
			<point x="566" y="263" type="line" smooth="yes"/>
			<point x="599" y="263"/>
			<point x="620" y="242"/>
			<point x="620" y="202" type="curve" smooth="yes"/>
			<point x="620" y="163" type="line" smooth="yes"/>
			<point x="620" y="122"/>
			<point x="599" y="101"/>
			<point x="566" y="101" type="curve" smooth="yes"/>
		</contour>
	</outline>
</glyph>
<glyph name="uni0462" format="2">
	<advance width="629"/>
	<unicode hex="0462"/>
	<outline>
		<contour>
			<point x="97" y="0" type="line"/>
			<point x="407" y="0" type="line" smooth="yes"/>
			<point x="525" y="0"/>
			<point x="600" y="90"/>
			<point x="600" y="214" type="curve" smooth="yes"/>
			<point x="600" y="340"/>
			<point x="525" y="430"/>
			<point x="407" y="430" type="curve" smooth="yes"/>
			<point x="241" y="430" type="line"/>
			<point x="241" y="509" type="line"/>
			<point x="397" y="509" type="line"/>
			<point x="397" y="628" type="line"/>
			<point x="241" y="628" type="line"/>
			<point x="241" y="698" type="line"/>
			<point x="97" y="698" type="line"/>
			<point x="97" y="628" type="line"/>
			<point x="12" y="628" type="line"/>
			<point x="12" y="509" type="line"/>
			<point x="97" y="509" type="line"/>
		</contour>
		<contour>
			<point x="241" y="125" type="line"/>
			<point x="241" y="305" type="line"/>
			<point x="390" y="305" type="line" smooth="yes"/>
			<point x="427" y="305"/>
			<point x="452" y="280"/>
			<point x="452" y="231" type="curve" smooth="yes"/>
			<point x="452" y="199" type="line" smooth="yes"/>
			<point x="452" y="150"/>
			<point x="427" y="125"/>
			<point x="390" y="125" type="curve" smooth="yes"/>
		</contour>
	</outline>
</glyph>
<glyph name="uni0463" format="2">
	<advance width="507"/>
	<unicode hex="0463"/>
	<outline>
		<contour>
			<point x="58" y="0" type="line"/>
			<point x="321" y="0" type="line" smooth="yes"/>
			<point x="413" y="0"/>
			<point x="486" y="60"/>
			<point x="486" y="174" type="curve" smooth="yes"/>
			<point x="486" y="286"/>
			<point x="413" y="347"/>
			<point x="321" y="347" type="curve" smooth="yes"/>
			<point x="198" y="347" type="line"/>
			<point x="198" y="414" type="line"/>
			<point x="323" y="414" type="line"/>
			<point x="323" y="524" type="line"/>
			<point x="198" y="524" type="line"/>
			<point x="198" y="709" type="line"/>
			<point x="58" y="709" type="line"/>
			<point x="58" y="524" type="line"/>
			<point x="-7" y="524" type="line"/>
			<point x="-7" y="414" type="line"/>
			<point x="58" y="414" type="line"/>
		</contour>
		<contour>
			<point x="198" y="101" type="line"/>
			<point x="198" y="246" type="line"/>
			<point x="291" y="246" type="line" smooth="yes"/>
			<point x="323" y="246"/>
			<point x="345" y="225"/>
			<point x="345" y="184" type="curve" smooth="yes"/>
			<point x="345" y="163" type="line" smooth="yes"/>
			<point x="345" y="122"/>
			<point x="323" y="101"/>
			<point x="291" y="101" type="curve" smooth="yes"/>
		</contour>
	</outline>
</glyph>
<glyph name="uni0473" format="2">
	<advance width="508"/>
	<unicode hex="0473"/>
	<anchor x="253" y="0" name="bottom"/>
	<anchor x="253" y="540" name="top"/>
	<outline>
		<contour>
			<point x="254" y="-12" type="curve" smooth="yes"/>
			<point x="394" y="-12"/>
			<point x="477" y="94"/>
			<point x="477" y="262" type="curve" smooth="yes"/>
			<point x="477" y="430"/>
			<point x="394" y="536"/>
			<point x="254" y="536" type="curve" smooth="yes"/>
			<point x="114" y="536"/>
			<point x="31" y="430"/>
			<point x="31" y="262" type="curve" smooth="yes"/>
			<point x="31" y="94"/>
			<point x="114" y="-12"/>
		</contour>
		<contour>
			<point x="254" y="91" type="curve" smooth="yes"/>
			<point x="200" y="91"/>
			<point x="167" y="130"/>
			<point x="167" y="205" type="curve" smooth="yes"/>
			<point x="167" y="216" type="line"/>
			<point x="180" y="228"/>
			<point x="191" y="232"/>
			<point x="205" y="232" type="curve" smooth="yes"/>
			<point x="220" y="232"/>
			<point x="233" y="227"/>
			<point x="250" y="217" type="curve" smooth="yes"/>
			<point x="268" y="206"/>
			<point x="285" y="201"/>
			<point x="303" y="201" type="curve" smooth="yes"/>
			<point x="318" y="201"/>
			<point x="333" y="208"/>
			<point x="341" y="216" type="curve"/>
			<point x="341" y="207" type="line" smooth="yes"/>
			<point x="341" y="132"/>
			<point x="308" y="91"/>
		</contour>
		<contour>
			<point x="167" y="317" type="line" smooth="yes"/>
			<point x="167" y="392"/>
			<point x="200" y="433"/>
			<point x="254" y="433" type="curve" smooth="yes"/>
			<point x="308" y="433"/>
			<point x="341" y="392"/>
			<point x="341" y="317" type="curve" smooth="yes"/>
			<point x="341" y="307" type="line"/>
			<point x="328" y="295"/>
			<point x="317" y="291"/>
			<point x="303" y="291" type="curve" smooth="yes"/>
			<point x="288" y="291"/>
			<point x="275" y="296"/>
			<point x="258" y="306" type="curve" smooth="yes"/>
			<point x="241" y="316"/>
			<point x="226" y="322"/>
			<point x="205" y="322" type="curve" smooth="yes"/>
			<point x="190" y="322"/>
			<point x="175" y="315"/>
			<point x="167" y="307" type="curve"/>
		</contour>
	</outline>
</glyph>
<glyph name="uni0474" format="2">
	<advance width="599"/>
	<unicode hex="0474"/>
	<outline>
		<contour>
			<point x="377" y="0" type="line"/>
			<point x="534" y="583" type="line"/>
			<point x="591" y="583" type="line"/>
			<point x="591" y="698" type="line"/>
			<point x="535" y="698" type="line"/>
			<point x="463" y="698"/>
			<point x="420" y="667"/>
			<point x="401" y="595" type="curve" smooth="yes"/>
			<point x="345" y="363" type="line"/>
			<point x="309" y="137" type="line"/>
			<point x="293" y="137" type="line"/>
			<point x="251" y="361" type="line"/>
			<point x="157" y="698" type="line"/>
			<point x="12" y="698" type="line"/>
			<point x="217" y="0" type="line"/>
		</contour>
	</outline>
</glyph>
<glyph name="uni0475" format="2">
	<advance width="495"/>
	<unicode hex="0475"/>
	<outline>
		<contour>
			<point x="327" y="0" type="line"/>
			<point x="430" y="414" type="line"/>
			<point x="486" y="414" type="line"/>
			<point x="486" y="524" type="line"/>
			<point x="430" y="524" type="line" smooth="yes"/>
			<point x="355" y="524"/>
			<point x="325" y="496"/>
			<point x="306" y="421" type="curve" smooth="yes"/>
			<point x="283" y="306" type="line"/>
			<point x="254" y="118" type="line"/>
			<point x="238" y="118" type="line"/>
			<point x="201" y="307" type="line"/>
			<point x="145" y="524" type="line"/>
			<point x="7" y="524" type="line"/>
			<point x="161" y="0" type="line"/>
		</contour>
	</outline>
</glyph>
<glyph name="uni0491" format="2">
	<advance width="400"/>
	<unicode hex="0491"/>
	<outline>
		<contour>
			<point x="60" y="0" type="line"/>
			<point x="200" y="0" type="line"/>
			<point x="200" y="414" type="line"/>
			<point x="383" y="414" type="line"/>
			<point x="383" y="664" type="line"/>
			<point x="256" y="664" type="line"/>
			<point x="256" y="524" type="line"/>
			<point x="60" y="524" type="line"/>
		</contour>
	</outline>
</glyph>
<glyph name="uni0492" format="2">
	<advance width="492"/>
	<unicode hex="0492"/>
	<outline>
		<contour>
			<point x="96" y="0" type="line"/>
			<point x="240" y="0" type="line"/>
			<point x="240" y="289" type="line"/>
			<point x="392" y="289" type="line"/>
			<point x="392" y="397" type="line"/>
			<point x="240" y="397" type="line"/>
			<point x="240" y="570" type="line"/>
			<point x="468" y="570" type="line"/>
			<point x="468" y="698" type="line"/>
			<point x="96" y="698" type="line"/>
			<point x="96" y="397" type="line"/>
			<point x="20" y="397" type="line"/>
			<point x="20" y="289" type="line"/>
			<point x="96" y="289" type="line"/>
		</contour>
	</outline>
</glyph>
<glyph name="uni0493" format="2">
	<advance width="415"/>
	<unicode hex="0493"/>
	<outline>
		<contour>
			<point x="76" y="0" type="line"/>
			<point x="216" y="0" type="line"/>
			<point x="216" y="208" type="line"/>
			<point x="323" y="208" type="line"/>
			<point x="323" y="302" type="line"/>
			<point x="216" y="302" type="line"/>
			<point x="216" y="414" type="line"/>
			<point x="398" y="414" type="line"/>
			<point x="398" y="524" type="line"/>
			<point x="76" y="524" type="line"/>
			<point x="76" y="302" type="line"/>
			<point x="19" y="302" type="line"/>
			<point x="19" y="208" type="line"/>
			<point x="76" y="208" type="line"/>
		</contour>
	</outline>
</glyph>
<glyph name="uni0494" format="2">
	<advance width="605"/>
	<unicode hex="0494"/>
	<outline>
		<contour>
			<point x="289" y="-182" type="line"/>
			<point x="336" y="-182" type="line" smooth="yes"/>
			<point x="470" y="-182"/>
			<point x="557" y="-99"/>
			<point x="557" y="75" type="curve" smooth="yes"/>
			<point x="557" y="141" type="line" smooth="yes"/>
			<point x="557" y="310"/>
			<point x="481" y="397"/>
			<point x="329" y="397" type="curve" smooth="yes"/>
			<point x="284" y="397"/>
			<point x="247" y="389"/>
			<point x="216" y="374" type="curve"/>
			<point x="212" y="374" type="line"/>
			<point x="212" y="570" type="line"/>
			<point x="441" y="570" type="line"/>
			<point x="441" y="698" type="line"/>
			<point x="68" y="698" type="line"/>
			<point x="68" y="0" type="line"/>
			<point x="212" y="0" type="line"/>
			<point x="212" y="253" type="line"/>
			<point x="237" y="265"/>
			<point x="269" y="272"/>
			<point x="316" y="272" type="curve" smooth="yes"/>
			<point x="381" y="272"/>
			<point x="413" y="229"/>
			<point x="413" y="146" type="curve" smooth="yes"/>
			<point x="413" y="81" type="line" smooth="yes"/>
			<point x="413" y="22"/>
			<point x="402" y="-24"/>
			<point x="383" y="-49" type="curve"/>
			<point x="289" y="-49" type="line"/>
		</contour>
	</outline>
</glyph>
<glyph name="uni0495" format="2">
	<advance width="520"/>
	<unicode hex="0495"/>
	<outline>
		<contour>
			<point x="243" y="-200" type="line"/>
			<point x="302" y="-200" type="line" smooth="yes"/>
			<point x="422" y="-200"/>
			<point x="479" y="-138"/>
			<point x="479" y="-1" type="curve" smooth="yes"/>
			<point x="479" y="113" type="line" smooth="yes"/>
			<point x="479" y="252"/>
			<point x="432" y="310"/>
			<point x="326" y="310" type="curve" smooth="yes"/>
			<point x="266" y="310"/>
			<point x="228" y="284"/>
			<point x="217" y="242" type="curve"/>
			<point x="200" y="242" type="line"/>
			<point x="200" y="414" type="line"/>
			<point x="383" y="414" type="line"/>
			<point x="383" y="524" type="line"/>
			<point x="60" y="524" type="line"/>
			<point x="60" y="0" type="line"/>
			<point x="200" y="0" type="line"/>
			<point x="200" y="142" type="line" smooth="yes"/>
			<point x="200" y="173"/>
			<point x="223" y="196"/>
			<point x="271" y="196" type="curve" smooth="yes"/>
			<point x="319" y="196"/>
			<point x="339" y="175"/>
			<point x="339" y="106" type="curve" smooth="yes"/>
			<point x="339" y="11" type="line" smooth="yes"/>
			<point x="339" y="-45"/>
			<point x="333" y="-72"/>
			<point x="319" y="-90" type="curve"/>
			<point x="243" y="-90" type="line"/>
		</contour>
	</outline>
</glyph>
<glyph name="uni0496" format="2">
	<advance width="932"/>
	<unicode hex="0496"/>
	<outline>
		<contour>
			<point x="786" y="-150" type="line"/>
			<point x="922" y="-150" type="line"/>
			<point x="922" y="128" type="line"/>
			<point x="818" y="128" type="line"/>
			<point x="753" y="296" type="line" smooth="yes"/>
			<point x="738" y="334"/>
			<point x="714" y="351"/>
			<point x="684" y="352" type="curve"/>
			<point x="684" y="366" type="line"/>
			<point x="713" y="371"/>
			<point x="733" y="387"/>
			<point x="751" y="428" type="curve" smooth="yes"/>
			<point x="805" y="570" type="line"/>
			<point x="861" y="570" type="line"/>
			<point x="861" y="698" type="line"/>
			<point x="804" y="698" type="line" smooth="yes"/>
			<point x="749" y="698"/>
			<point x="713" y="673"/>
			<point x="688" y="615" type="curve" smooth="yes"/>
			<point x="606" y="416" type="line"/>
			<point x="527" y="416" type="line"/>
			<point x="527" y="698" type="line"/>
			<point x="383" y="698" type="line"/>
			<point x="383" y="416" type="line"/>
			<point x="304" y="416" type="line"/>
			<point x="222" y="615" type="line" smooth="yes"/>
			<point x="197" y="673"/>
			<point x="161" y="698"/>
			<point x="106" y="698" type="curve" smooth="yes"/>
			<point x="48" y="698" type="line"/>
			<point x="48" y="570" type="line"/>
			<point x="104" y="570" type="line"/>
			<point x="159" y="428" type="line" smooth="yes"/>
			<point x="176" y="390"/>
			<point x="194" y="372"/>
			<point x="226" y="366" type="curve"/>
			<point x="226" y="352" type="line"/>
			<point x="195" y="351"/>
			<point x="172" y="334"/>
			<point x="157" y="296" type="curve" smooth="yes"/>
			<point x="92" y="128" type="line"/>
			<point x="36" y="128" type="line"/>
			<point x="36" y="0" type="line"/>
			<point x="110" y="0" type="line" smooth="yes"/>
			<point x="162" y="0"/>
			<point x="195" y="20"/>
			<point x="223" y="86" type="curve" smooth="yes"/>
			<point x="304" y="290" type="line"/>
			<point x="383" y="290" type="line"/>
			<point x="383" y="0" type="line"/>
			<point x="527" y="0" type="line"/>
			<point x="527" y="290" type="line"/>
			<point x="606" y="290" type="line"/>
			<point x="687" y="85" type="line"/>
			<point x="715" y="20"/>
			<point x="748" y="0"/>
			<point x="803" y="0" type="curve" smooth="yes"/>
			<point x="816" y="0" type="line"/>
			<point x="786" y="42" type="line"/>
		</contour>
	</outline>
</glyph>
<glyph name="uni0497" format="2">
	<advance width="795"/>
	<unicode hex="0497"/>
	<outline>
		<contour>
			<point x="659" y="-140" type="line"/>
			<point x="785" y="-140" type="line"/>
			<point x="785" y="110" type="line"/>
			<point x="704" y="110" type="line"/>
			<point x="655" y="221" type="line" smooth="yes"/>
			<point x="644" y="246"/>
			<point x="627" y="261"/>
			<point x="603" y="263" type="curve"/>
			<point x="603" y="277" type="line"/>
			<point x="623" y="279"/>
			<point x="643" y="294"/>
			<point x="654" y="321" type="curve" smooth="yes"/>
			<point x="692" y="414" type="line"/>
			<point x="741" y="414" type="line"/>
			<point x="741" y="524" type="line"/>
			<point x="685" y="524" type="line" smooth="yes"/>
			<point x="629" y="524"/>
			<point x="598" y="501"/>
			<point x="577" y="451" type="curve" smooth="yes"/>
			<point x="521" y="321" type="line"/>
			<point x="464" y="321" type="line"/>
			<point x="464" y="524" type="line"/>
			<point x="324" y="524" type="line"/>
			<point x="324" y="321" type="line"/>
			<point x="267" y="321" type="line"/>
			<point x="211" y="451" type="line" smooth="yes"/>
			<point x="187" y="508"/>
			<point x="151" y="524"/>
			<point x="103" y="524" type="curve" smooth="yes"/>
			<point x="47" y="524" type="line"/>
			<point x="47" y="414" type="line"/>
			<point x="95" y="414" type="line"/>
			<point x="134" y="321" type="line" smooth="yes"/>
			<point x="144" y="297"/>
			<point x="162" y="280"/>
			<point x="185" y="277" type="curve"/>
			<point x="185" y="263" type="line"/>
			<point x="162" y="262"/>
			<point x="143" y="247"/>
			<point x="132" y="221" type="curve" smooth="yes"/>
			<point x="84" y="110" type="line"/>
			<point x="36" y="110" type="line"/>
			<point x="36" y="0" type="line"/>
			<point x="97" y="0" type="line" smooth="yes"/>
			<point x="148" y="0"/>
			<point x="181" y="19"/>
			<point x="206" y="75" type="curve" smooth="yes"/>
			<point x="267" y="212" type="line"/>
			<point x="324" y="212" type="line"/>
			<point x="324" y="0" type="line"/>
			<point x="464" y="0" type="line"/>
			<point x="464" y="212" type="line"/>
			<point x="521" y="212" type="line"/>
			<point x="581" y="74" type="line"/>
			<point x="606" y="21"/>
			<point x="635" y="0"/>
			<point x="687" y="0" type="curve" smooth="yes"/>
			<point x="688" y="0" type="line"/>
			<point x="659" y="47" type="line"/>
		</contour>
	</outline>
</glyph>
<glyph name="uni0524" format="2">
	<advance width="699"/>
	<unicode hex="0524"/>
	<outline>
		<contour>
			<point x="68" y="0" type="line"/>
			<point x="212" y="0" type="line"/>
			<point x="212" y="570" type="line"/>
			<point x="429" y="570" type="line"/>
			<point x="429" y="0" type="line"/>
			<point x="540" y="0" type="line"/>
			<point x="540" y="-150" type="line"/>
			<point x="676" y="-150" type="line"/>
			<point x="676" y="128" type="line"/>
			<point x="572" y="128" type="line"/>
			<point x="572" y="698" type="line"/>
			<point x="68" y="698" type="line"/>
		</contour>
	</outline>
</glyph>
<glyph name="acute.case" format="2">
	<advance width="540"/>
	<anchor x="270" y="698" name="_top"/>
	<outline>
		<contour>
			<point x="414" y="919" type="line" name="hr00"/>
			<point x="295" y="977" type="line"/>
			<point x="203" y="779" type="line"/>
			<point x="285" y="740" type="line"/>
		</contour>
	</outline>
</glyph>
<glyph name="alpha.alt01" format="2">
	<advance width="563"/>
	<anchor x="263" y="0" name="bottom"/>
	<anchor x="532" y="0" name="bottomright"/>
	<anchor x="268" y="540" name="top"/>
	<outline>
		<contour>
			<point x="532" y="110" type="line"/>
			<point x="490" y="110" type="line"/>
			<point x="490" y="524" type="line"/>
			<point x="350" y="524" type="line"/>
			<point x="350" y="436" type="line"/>
			<point x="335" y="436" type="line"/>
			<point x="327" y="495"/>
			<point x="280" y="536"/>
			<point x="219" y="536" type="curve" smooth="yes"/>
			<point x="99" y="536"/>
			<point x="38" y="438"/>
			<point x="38" y="262" type="curve" smooth="yes"/>
			<point x="38" y="87"/>
			<point x="99" y="-12"/>
			<point x="219" y="-12" type="curve" smooth="yes"/>
			<point x="282" y="-12"/>
			<point x="327" y="29"/>
			<point x="340" y="95" type="curve"/>
			<point x="396" y="95" type="line"/>
			<point x="351" y="128" type="line"/>
			<point x="351" y="122" type="line" smooth="yes"/>
			<point x="351" y="49"/>
			<point x="398" y="0"/>
			<point x="488" y="0" type="curve" smooth="yes"/>
			<point x="532" y="0" type="line"/>
		</contour>
		<contour>
			<point x="266" y="102" type="curve" smooth="yes"/>
			<point x="219" y="102"/>
			<point x="184" y="148"/>
			<point x="184" y="217" type="curve" smooth="yes"/>
			<point x="184" y="307" type="line" smooth="yes"/>
			<point x="184" y="376"/>
			<point x="219" y="422"/>
			<point x="266" y="422" type="curve" smooth="yes"/>
			<point x="314" y="422"/>
			<point x="350" y="391"/>
			<point x="350" y="342" type="curve"/>
			<point x="350" y="183" type="line"/>
			<point x="350" y="132"/>
			<point x="314" y="102"/>
		</contour>
	</outline>
</glyph>
<glyph name="breve.cyrl" format="2">
	<advance width="600"/>
	<anchor x="270" y="540" name="_top"/>
	<outline>
		<contour>
			<point x="270" y="579" type="curve" smooth="yes"/>
			<point x="351" y="579"/>
			<point x="399" y="619"/>
			<point x="427" y="691" type="curve" smooth="yes"/>
			<point x="446" y="742" type="line"/>
			<point x="340" y="785" type="line"/>
			<point x="311" y="684" type="line"/>
			<point x="304" y="680"/>
			<point x="286" y="677"/>
			<point x="270" y="677" type="curve" smooth="yes"/>
			<point x="254" y="677"/>
			<point x="236" y="680"/>
			<point x="229" y="684" type="curve"/>
			<point x="200" y="785" type="line"/>
			<point x="94" y="742" type="line"/>
			<point x="113" y="691" type="line" smooth="yes"/>
			<point x="141" y="619"/>
			<point x="189" y="579"/>
		</contour>
	</outline>
</glyph>
<glyph name="breve.cyrl_case" format="2">
	<advance width="600"/>
	<anchor x="300" y="698" name="_top"/>
	<outline>
		<contour>
			<point x="300" y="740" type="curve" smooth="yes"/>
			<point x="381" y="740"/>
			<point x="429" y="780"/>
			<point x="457" y="852" type="curve" smooth="yes"/>
			<point x="476" y="903" type="line"/>
			<point x="370" y="946" type="line"/>
			<point x="341" y="845" type="line"/>
			<point x="334" y="841"/>
			<point x="316" y="838"/>
			<point x="300" y="838" type="curve" smooth="yes"/>
			<point x="284" y="838"/>
			<point x="266" y="841"/>
			<point x="259" y="845" type="curve"/>
			<point x="230" y="946" type="line"/>
			<point x="124" y="903" type="line"/>
			<point x="143" y="852" type="line" smooth="yes"/>
			<point x="171" y="780"/>
			<point x="219" y="740"/>
		</contour>
	</outline>
</glyph>
<glyph name="grave.case" format="2">
	<advance width="540"/>
	<anchor x="270" y="698" name="_top"/>
	<outline>
		<contour>
			<point x="255" y="740" type="line" name="hr00"/>
			<point x="337" y="779" type="line"/>
			<point x="245" y="977" type="line"/>
			<point x="126" y="919" type="line"/>
		</contour>
	</outline>
</glyph>
<glyph name="hungarumlaut.case" format="2">
	<advance width="540"/>
	<anchor x="270" y="698" name="_top"/>
	<outline>
		<contour>
			<point x="314" y="919" type="line" name="hr00"/>
			<point x="204" y="973" type="line"/>
			<point x="110" y="776" type="line"/>
			<point x="186" y="740" type="line"/>
		</contour>
		<contour>
			<point x="503" y="919" type="line"/>
			<point x="393" y="973" type="line"/>
			<point x="299" y="776" type="line"/>
			<point x="375" y="740" type="line"/>
		</contour>
	</outline>
</glyph>
<glyph name="macron.case" format="2">
	<advance width="540"/>
	<anchor x="270" y="698" name="_top"/>
	<outline>
		<contour>
			<point x="132" y="785" type="line" name="hr00"/>
			<point x="408" y="785" type="line"/>
			<point x="408" y="888" type="line"/>
			<point x="132" y="888" type="line"/>
		</contour>
	</outline>
</glyph>
<glyph name="uni03BC" format="2">
	<advance width="557"/>
	<outline>
		<contour>
			<point x="199" y="-200" type="line"/>
			<point x="199" y="-92" type="line"/>
			<point x="159" y="49" type="line"/>
			<point x="182" y="49" type="line"/>
			<point x="197" y="3"/>
			<point x="218" y="-12"/>
			<point x="249" y="-12" type="curve" smooth="yes"/>
			<point x="293" y="-12"/>
			<point x="328" y="22"/>
			<point x="342" y="95" type="curve"/>
			<point x="395" y="95" type="line"/>
			<point x="356" y="127" type="line"/>
			<point x="356" y="123" type="line" smooth="yes"/>
			<point x="356" y="49"/>
			<point x="390" y="0"/>
			<point x="482" y="0" type="curve" smooth="yes"/>
			<point x="526" y="0" type="line"/>
			<point x="526" y="110" type="line"/>
			<point x="484" y="110" type="line"/>
			<point x="484" y="524" type="line"/>
			<point x="344" y="524" type="line"/>
			<point x="344" y="182" type="line" smooth="yes"/>
			<point x="344" y="132"/>
			<point x="307" y="102"/>
			<point x="262" y="102" type="curve" smooth="yes"/>
			<point x="217" y="102"/>
			<point x="200" y="139"/>
			<point x="200" y="205" type="curve" smooth="yes"/>
			<point x="200" y="524" type="line"/>
			<point x="60" y="524" type="line"/>
			<point x="60" y="-200" type="line"/>
		</contour>
	</outline>
</glyph>
<glyph name="uni040A" format="2">
	<advance width="937"/>
	<outline>
		<contour>
			<point x="68" y="0" type="line"/>
			<point x="212" y="0" type="line"/>
			<point x="212" y="290" type="line"/>
			<point x="424" y="290" type="line"/>
			<point x="424" y="0" type="line"/>
			<point x="715" y="0" type="line" smooth="yes"/>
			<point x="833" y="0"/>
			<point x="908" y="90"/>
			<point x="908" y="221" type="curve" smooth="yes"/>
			<point x="908" y="353"/>
			<point x="833" y="443"/>
			<point x="715" y="443" type="curve" smooth="yes"/>
			<point x="568" y="443" type="line"/>
			<point x="568" y="698" type="line"/>
			<point x="424" y="698" type="line"/>
			<point x="424" y="416" type="line"/>
			<point x="212" y="416" type="line"/>
			<point x="212" y="698" type="line"/>
			<point x="68" y="698" type="line"/>
		</contour>
		<contour>
			<point x="568" y="125" type="line"/>
			<point x="568" y="318" type="line"/>
			<point x="698" y="318" type="line" smooth="yes"/>
			<point x="736" y="318"/>
			<point x="760" y="291"/>
			<point x="760" y="244" type="curve" smooth="yes"/>
			<point x="760" y="199" type="line" smooth="yes"/>
			<point x="760" y="151"/>
			<point x="736" y="125"/>
			<point x="698" y="125" type="curve" smooth="yes"/>
		</contour>
	</outline>
</glyph>
<glyph name="uni040B" format="2">
	<advance width="737"/>
	<outline>
		<contour>
			<point x="192" y="0" type="line"/>
			<point x="335" y="0" type="line"/>
			<point x="335" y="301" type="line"/>
			<point x="358" y="312"/>
			<point x="387" y="320"/>
			<point x="444" y="320" type="curve" smooth="yes"/>
			<point x="514" y="320"/>
			<point x="546" y="277"/>
			<point x="546" y="194" type="curve" smooth="yes"/>
			<point x="546" y="0" type="line"/>
			<point x="689" y="0" type="line"/>
			<point x="689" y="189" type="line" smooth="yes"/>
			<point x="689" y="359"/>
			<point x="613" y="445"/>
			<point x="457" y="445" type="curve" smooth="yes"/>
			<point x="404" y="445"/>
			<point x="368" y="436"/>
			<point x="340" y="422" type="curve"/>
			<point x="335" y="422" type="line"/>
			<point x="335" y="570" type="line"/>
			<point x="502" y="570" type="line"/>
			<point x="502" y="698" type="line"/>
			<point x="25" y="698" type="line"/>
			<point x="25" y="570" type="line"/>
			<point x="192" y="570" type="line"/>
		</contour>
	</outline>
</glyph>
<glyph name="uni040F" format="2">
	<advance width="640"/>
	<outline>
		<contour>
			<point x="253" y="-150" type="line"/>
			<point x="388" y="-150" type="line"/>
			<point x="388" y="0" type="line"/>
			<point x="572" y="0" type="line"/>
			<point x="572" y="698" type="line"/>
			<point x="429" y="698" type="line"/>
			<point x="429" y="128" type="line"/>
			<point x="212" y="128" type="line"/>
			<point x="212" y="698" type="line"/>
			<point x="68" y="698" type="line"/>
			<point x="68" y="0" type="line"/>
			<point x="253" y="0" type="line"/>
		</contour>
	</outline>
</glyph>
<glyph name="uni041B" format="2">
	<advance width="671"/>
	<outline>
		<contour>
			<point x="19" y="-5" type="line"/>
			<point x="67" y="-5" type="line" smooth="yes"/>
			<point x="127" y="-5"/>
			<point x="173" y="8"/>
			<point x="211" y="50" type="curve" smooth="yes"/>
			<point x="256" y="100"/>
			<point x="292" y="203"/>
			<point x="292" y="460" type="curve" smooth="yes"/>
			<point x="292" y="570" type="line"/>
			<point x="459" y="570" type="line"/>
			<point x="459" y="0" type="line"/>
			<point x="603" y="0" type="line"/>
			<point x="603" y="698" type="line"/>
			<point x="152" y="698" type="line"/>
			<point x="152" y="479" type="line" smooth="yes"/>
			<point x="152" y="259"/>
			<point x="131" y="176"/>
			<point x="95" y="128" type="curve"/>
			<point x="19" y="128" type="line"/>
		</contour>
	</outline>
</glyph>
<glyph name="uni041F" format="2">
	<advance width="640"/>
	<outline>
		<contour>
			<point x="68" y="0" type="line"/>
			<point x="212" y="0" type="line"/>
			<point x="212" y="570" type="line"/>
			<point x="429" y="570" type="line"/>
			<point x="429" y="0" type="line"/>
			<point x="572" y="0" type="line"/>
			<point x="572" y="698" type="line"/>
			<point x="68" y="698" type="line"/>
		</contour>
	</outline>
</glyph>
<glyph name="uni042A" format="2">
	<advance width="684"/>
	<outline>
		<contour>
			<point x="153" y="0" type="line"/>
			<point x="463" y="0" type="line" smooth="yes"/>
			<point x="580" y="0"/>
			<point x="655" y="89"/>
			<point x="655" y="221" type="curve" smooth="yes"/>
			<point x="655" y="353"/>
			<point x="580" y="443"/>
			<point x="463" y="443" type="curve" smooth="yes"/>
			<point x="297" y="443" type="line"/>
			<point x="297" y="698" type="line"/>
			<point x="20" y="698" type="line"/>
			<point x="20" y="570" type="line"/>
			<point x="153" y="570" type="line"/>
		</contour>
		<contour>
			<point x="297" y="125" type="line"/>
			<point x="297" y="318" type="line"/>
			<point x="445" y="318" type="line" smooth="yes"/>
			<point x="483" y="318"/>
			<point x="507" y="292"/>
			<point x="507" y="244" type="curve" smooth="yes"/>
			<point x="507" y="199" type="line" smooth="yes"/>
			<point x="507" y="151"/>
			<point x="483" y="125"/>
			<point x="445" y="125" type="curve" smooth="yes"/>
		</contour>
	</outline>
</glyph>
<glyph name="uni042B" format="2">
	<advance width="846"/>
	<anchor x="424" y="698" name="top"/>
	<outline>
		<contour>
			<point x="68" y="0" type="line"/>
			<point x="369" y="0" type="line" smooth="yes"/>
			<point x="486" y="0"/>
			<point x="561" y="89"/>
			<point x="561" y="221" type="curve" smooth="yes"/>
			<point x="561" y="352"/>
			<point x="487" y="443"/>
			<point x="369" y="443" type="curve" smooth="yes"/>
			<point x="212" y="443" type="line"/>
			<point x="212" y="698" type="line"/>
			<point x="68" y="698" type="line"/>
		</contour>
		<contour>
			<point x="212" y="125" type="line"/>
			<point x="212" y="318" type="line"/>
			<point x="351" y="318" type="line" smooth="yes"/>
			<point x="389" y="318"/>
			<point x="413" y="292"/>
			<point x="413" y="244" type="curve" smooth="yes"/>
			<point x="413" y="199" type="line" smooth="yes"/>
			<point x="413" y="151"/>
			<point x="389" y="125"/>
			<point x="351" y="125" type="curve" smooth="yes"/>
		</contour>
		<contour>
			<point x="635" y="0" type="line"/>
			<point x="778" y="0" type="line"/>
			<point x="778" y="698" type="line"/>
			<point x="635" y="698" type="line"/>
		</contour>
	</outline>
</glyph>
<glyph name="uni042C" format="2">
	<advance width="599"/>
	<outline>
		<contour>
			<point x="68" y="0" type="line"/>
			<point x="378" y="0" type="line" smooth="yes"/>
			<point x="495" y="0"/>
			<point x="570" y="89"/>
			<point x="570" y="221" type="curve" smooth="yes"/>
			<point x="570" y="352"/>
			<point x="496" y="443"/>
			<point x="378" y="443" type="curve" smooth="yes"/>
			<point x="212" y="443" type="line"/>
			<point x="212" y="698" type="line"/>
			<point x="68" y="698" type="line"/>
		</contour>
		<contour>
			<point x="212" y="125" type="line"/>
			<point x="212" y="318" type="line"/>
			<point x="360" y="318" type="line" smooth="yes"/>
			<point x="398" y="318"/>
			<point x="422" y="292"/>
			<point x="422" y="244" type="curve" smooth="yes"/>
			<point x="422" y="199" type="line" smooth="yes"/>
			<point x="422" y="151"/>
			<point x="398" y="125"/>
			<point x="360" y="125" type="curve" smooth="yes"/>
		</contour>
	</outline>
</glyph>
<glyph name="uni042D" format="2">
	<advance width="608"/>
	<outline>
		<contour>
			<point x="210" y="290" type="line"/>
			<point x="453" y="290" type="line"/>
			<point x="412" y="332" type="line"/>
			<point x="412" y="281" type="line" smooth="yes"/>
			<point x="412" y="175"/>
			<point x="357" y="116"/>
			<point x="274" y="116" type="curve" smooth="yes"/>
			<point x="207" y="116"/>
			<point x="165" y="150"/>
			<point x="143" y="219" type="curve"/>
			<point x="26" y="147" type="line"/>
			<point x="72" y="47"/>
			<point x="146" y="-12"/>
			<point x="274" y="-12" type="curve" smooth="yes"/>
			<point x="454" y="-12"/>
			<point x="564" y="119"/>
			<point x="564" y="354" type="curve" smooth="yes"/>
			<point x="564" y="589"/>
			<point x="454" y="710"/>
			<point x="274" y="710" type="curve" smooth="yes"/>
			<point x="153" y="710"/>
			<point x="83" y="656"/>
			<point x="30" y="554" type="curve"/>
			<point x="150" y="486" type="line"/>
			<point x="171" y="544"/>
			<point x="198" y="582"/>
			<point x="274" y="582" type="curve" smooth="yes"/>
			<point x="360" y="582"/>
			<point x="412" y="521"/>
			<point x="412" y="416" type="curve" smooth="yes"/>
			<point x="412" y="388" type="line"/>
			<point x="453" y="416" type="line"/>
			<point x="210" y="416" type="line"/>
		</contour>
	</outline>
</glyph>
<glyph name="uni042E" format="2">
	<advance width="920"/>
	<outline>
		<contour>
			<point x="598" y="-12" type="curve" smooth="yes"/>
			<point x="765" y="-12"/>
			<point x="876" y="112"/>
			<point x="876" y="349" type="curve" smooth="yes"/>
			<point x="876" y="586"/>
			<point x="765" y="710"/>
			<point x="598" y="710" type="curve" smooth="yes"/>
			<point x="449" y="710"/>
			<point x="342" y="606"/>
			<point x="323" y="416" type="curve"/>
			<point x="212" y="416" type="line"/>
			<point x="212" y="698" type="line"/>
			<point x="68" y="698" type="line"/>
			<point x="68" y="0" type="line"/>
			<point x="212" y="0" type="line"/>
			<point x="212" y="290" type="line"/>
			<point x="321" y="290" type="line"/>
			<point x="343" y="89"/>
			<point x="448" y="-12"/>
		</contour>
		<contour>
			<point x="598" y="116" type="curve" smooth="yes"/>
			<point x="519" y="116"/>
			<point x="472" y="182"/>
			<point x="472" y="296" type="curve" smooth="yes"/>
			<point x="472" y="402" type="line" smooth="yes"/>
			<point x="472" y="516"/>
			<point x="519" y="582"/>
			<point x="598" y="582" type="curve" smooth="yes"/>
			<point x="677" y="582"/>
			<point x="724" y="516"/>
			<point x="724" y="402" type="curve" smooth="yes"/>
			<point x="724" y="296" type="line" smooth="yes"/>
			<point x="724" y="182"/>
			<point x="677" y="116"/>
		</contour>
	</outline>
</glyph>
<glyph name="uni042F" format="2">
	<advance width="614"/>
	<outline>
		<contour>
			<point x="38" y="0" type="line"/>
			<point x="106" y="0" type="line" smooth="yes"/>
			<point x="157" y="0"/>
			<point x="188" y="14"/>
			<point x="221" y="73" type="curve" smooth="yes"/>
			<point x="326" y="261" type="line"/>
			<point x="402" y="261" type="line"/>
			<point x="402" y="0" type="line"/>
			<point x="546" y="0" type="line"/>
			<point x="546" y="698" type="line"/>
			<point x="243" y="698" type="line" smooth="yes"/>
			<point x="127" y="698"/>
			<point x="52" y="610"/>
			<point x="52" y="478" type="curve" smooth="yes"/>
			<point x="52" y="355"/>
			<point x="125" y="285"/>
			<point x="228" y="285" type="curve" smooth="yes"/>
			<point x="234" y="285" type="line"/>
			<point x="204" y="308" type="line"/>
			<point x="204" y="271" type="line"/>
			<point x="171" y="268"/>
			<point x="156" y="254"/>
			<point x="142" y="226" type="curve" smooth="yes"/>
			<point x="94" y="128" type="line"/>
			<point x="38" y="128" type="line"/>
		</contour>
		<contour>
			<point x="262" y="383" type="line" smooth="yes"/>
			<point x="224" y="383"/>
			<point x="200" y="408"/>
			<point x="200" y="456" type="curve" smooth="yes"/>
			<point x="200" y="500" type="line" smooth="yes"/>
			<point x="200" y="547"/>
			<point x="224" y="573"/>
			<point x="262" y="573" type="curve" smooth="yes"/>
			<point x="402" y="573" type="line"/>
			<point x="402" y="383" type="line"/>
		</contour>
	</outline>
</glyph>
<glyph name="uni043B" format="2">
	<advance width="554"/>
	<outline>
		<contour>
			<point x="14" y="-5" type="line"/>
			<point x="55" y="-5" type="line" smooth="yes"/>
			<point x="113" y="-5"/>
			<point x="152" y="7"/>
			<point x="180" y="37" type="curve" smooth="yes"/>
			<point x="217" y="77"/>
			<point x="246" y="159"/>
			<point x="246" y="353" type="curve" smooth="yes"/>
			<point x="246" y="414" type="line"/>
			<point x="354" y="414" type="line"/>
			<point x="354" y="0" type="line"/>
			<point x="494" y="0" type="line"/>
			<point x="494" y="524" type="line"/>
			<point x="111" y="524" type="line"/>
			<point x="111" y="360" type="line" smooth="yes"/>
			<point x="111" y="213"/>
			<point x="98" y="147"/>
			<point x="75" y="110" type="curve"/>
			<point x="14" y="110" type="line"/>
		</contour>
	</outline>
</glyph>
<glyph name="uni043C" format="2">
	<advance width="655"/>
	<outline>
		<contour>
			<point x="60" y="0" type="line"/>
			<point x="196" y="0" type="line"/>
			<point x="196" y="276" type="line"/>
			<point x="191" y="350" type="line"/>
			<point x="205" y="350" type="line"/>
			<point x="235" y="279" type="line"/>
			<point x="328" y="96" type="line"/>
			<point x="420" y="279" type="line"/>
			<point x="451" y="350" type="line"/>
			<point x="465" y="350" type="line"/>
			<point x="459" y="276" type="line"/>
			<point x="459" y="0" type="line"/>
			<point x="595" y="0" type="line"/>
			<point x="595" y="524" type="line"/>
			<point x="445" y="524" type="line"/>
			<point x="329" y="303" type="line"/>
			<point x="326" y="303" type="line"/>
			<point x="210" y="524" type="line"/>
			<point x="60" y="524" type="line"/>
		</contour>
	</outline>
</glyph>
<glyph name="uni043F" format="2">
	<advance width="539"/>
	<anchor x="270" y="0" name="bottom"/>
	<anchor x="270" y="540" name="top"/>
	<outline>
		<contour>
			<point x="60" y="0" type="line"/>
			<point x="200" y="0" type="line"/>
			<point x="200" y="414" type="line"/>
			<point x="339" y="414" type="line"/>
			<point x="339" y="0" type="line"/>
			<point x="479" y="0" type="line"/>
			<point x="479" y="524" type="line"/>
			<point x="60" y="524" type="line"/>
		</contour>
	</outline>
</glyph>
<glyph name="uni044A" format="2">
	<advance width="579"/>
	<outline>
		<contour>
			<point x="131" y="0" type="line"/>
			<point x="394" y="0" type="line" smooth="yes"/>
			<point x="486" y="0"/>
			<point x="558" y="65"/>
			<point x="558" y="183" type="curve" smooth="yes"/>
			<point x="558" y="299"/>
			<point x="486" y="364"/>
			<point x="394" y="364" type="curve" smooth="yes"/>
			<point x="271" y="364" type="line"/>
			<point x="271" y="524" type="line"/>
			<point x="18" y="524" type="line"/>
			<point x="18" y="414" type="line"/>
			<point x="131" y="414" type="line"/>
		</contour>
		<contour>
			<point x="271" y="101" type="line"/>
			<point x="271" y="263" type="line"/>
			<point x="364" y="263" type="line" smooth="yes"/>
			<point x="396" y="263"/>
			<point x="418" y="242"/>
			<point x="418" y="202" type="curve" smooth="yes"/>
			<point x="418" y="163" type="line" smooth="yes"/>
			<point x="418" y="122"/>
			<point x="396" y="101"/>
			<point x="364" y="101" type="curve" smooth="yes"/>
		</contour>
	</outline>
</glyph>
<glyph name="uni044B" format="2">
	<advance width="735"/>
	<anchor x="367" y="540" name="top"/>
	<outline>
		<contour>
			<point x="60" y="0" type="line"/>
			<point x="313" y="0" type="line" smooth="yes"/>
			<point x="405" y="0"/>
			<point x="477" y="65"/>
			<point x="477" y="183" type="curve" smooth="yes"/>
			<point x="477" y="299"/>
			<point x="405" y="364"/>
			<point x="313" y="364" type="curve" smooth="yes"/>
			<point x="200" y="364" type="line"/>
			<point x="200" y="524" type="line"/>
			<point x="60" y="524" type="line"/>
		</contour>
		<contour>
			<point x="200" y="101" type="line"/>
			<point x="200" y="263" type="line"/>
			<point x="282" y="263" type="line" smooth="yes"/>
			<point x="315" y="263"/>
			<point x="337" y="242"/>
			<point x="337" y="202" type="curve" smooth="yes"/>
			<point x="337" y="163" type="line" smooth="yes"/>
			<point x="337" y="122"/>
			<point x="315" y="101"/>
			<point x="282" y="101" type="curve" smooth="yes"/>
		</contour>
		<contour>
			<point x="535" y="0" type="line"/>
			<point x="675" y="0" type="line"/>
			<point x="675" y="524" type="line"/>
			<point x="535" y="524" type="line"/>
		</contour>
	</outline>
</glyph>
<glyph name="uni044C" format="2">
	<advance width="508"/>
	<outline>
		<contour>
			<point x="60" y="0" type="line"/>
			<point x="323" y="0" type="line" smooth="yes"/>
			<point x="415" y="0"/>
			<point x="487" y="65"/>
			<point x="487" y="183" type="curve" smooth="yes"/>
			<point x="487" y="299"/>
			<point x="415" y="364"/>
			<point x="323" y="364" type="curve" smooth="yes"/>
			<point x="200" y="364" type="line"/>
			<point x="200" y="524" type="line"/>
			<point x="60" y="524" type="line"/>
		</contour>
		<contour>
			<point x="200" y="101" type="line"/>
			<point x="200" y="263" type="line"/>
			<point x="292" y="263" type="line" smooth="yes"/>
			<point x="325" y="263"/>
			<point x="346" y="242"/>
			<point x="346" y="202" type="curve" smooth="yes"/>
			<point x="346" y="163" type="line" smooth="yes"/>
			<point x="346" y="122"/>
			<point x="325" y="101"/>
			<point x="292" y="101" type="curve" smooth="yes"/>
		</contour>
	</outline>
</glyph>
<glyph name="uni044D" format="2">
	<advance width="483"/>
	<outline>
		<contour>
			<point x="165" y="219" type="line"/>
			<point x="307" y="219" type="line"/>
			<point x="307" y="213" type="line" smooth="yes"/>
			<point x="307" y="140"/>
			<point x="281" y="99"/>
			<point x="220" y="99" type="curve" smooth="yes"/>
			<point x="173" y="99"/>
			<point x="144" y="120"/>
			<point x="126" y="175" type="curve"/>
			<point x="19" y="119" type="line"/>
			<point x="64" y="31"/>
			<point x="114" y="-12"/>
			<point x="220" y="-12" type="curve" smooth="yes"/>
			<point x="373" y="-12"/>
			<point x="452" y="95"/>
			<point x="452" y="262" type="curve" smooth="yes"/>
			<point x="452" y="430"/>
			<point x="375" y="536"/>
			<point x="223" y="536" type="curve" smooth="yes"/>
			<point x="114" y="536"/>
			<point x="57" y="488"/>
			<point x="22" y="412" type="curve"/>
			<point x="134" y="354" type="line"/>
			<point x="146" y="404"/>
			<point x="172" y="425"/>
			<point x="223" y="425" type="curve" smooth="yes"/>
			<point x="277" y="425"/>
			<point x="307" y="381"/>
			<point x="307" y="317" type="curve" smooth="yes"/>
			<point x="307" y="313" type="line"/>
			<point x="165" y="313" type="line"/>
		</contour>
	</outline>
</glyph>
<glyph name="uni044E" format="2">
	<advance width="744"/>
	<outline>
		<contour>
			<point x="494" y="-12" type="curve" smooth="yes"/>
			<point x="634" y="-12"/>
			<point x="713" y="93"/>
			<point x="713" y="262" type="curve" smooth="yes"/>
			<point x="713" y="431"/>
			<point x="634" y="536"/>
			<point x="494" y="536" type="curve" smooth="yes"/>
			<point x="376" y="536"/>
			<point x="298" y="461"/>
			<point x="279" y="321" type="curve"/>
			<point x="200" y="321" type="line"/>
			<point x="200" y="524" type="line"/>
			<point x="60" y="524" type="line"/>
			<point x="60" y="0" type="line"/>
			<point x="200" y="0" type="line"/>
			<point x="200" y="212" type="line"/>
			<point x="278" y="212" type="line"/>
			<point x="295" y="68"/>
			<point x="373" y="-12"/>
		</contour>
		<contour>
			<point x="494" y="100" type="curve" smooth="yes"/>
			<point x="445" y="100"/>
			<point x="421" y="139"/>
			<point x="421" y="210" type="curve" smooth="yes"/>
			<point x="421" y="314" type="line" smooth="yes"/>
			<point x="421" y="385"/>
			<point x="445" y="424"/>
			<point x="494" y="424" type="curve" smooth="yes"/>
			<point x="543" y="424"/>
			<point x="567" y="385"/>
			<point x="567" y="314" type="curve" smooth="yes"/>
			<point x="567" y="210" type="line" smooth="yes"/>
			<point x="567" y="139"/>
			<point x="543" y="100"/>
		</contour>
	</outline>
</glyph>
<glyph name="uni044F" format="2">
	<advance width="530"/>
	<outline>
		<contour>
			<point x="39" y="0" type="line"/>
			<point x="104" y="0" type="line" smooth="yes"/>
			<point x="155" y="0"/>
			<point x="189" y="19"/>
			<point x="214" y="75" type="curve" smooth="yes"/>
			<point x="263" y="185" type="line"/>
			<point x="330" y="185" type="line"/>
			<point x="330" y="0" type="line"/>
			<point x="470" y="0" type="line"/>
			<point x="470" y="524" type="line"/>
			<point x="208" y="524" type="line" smooth="yes"/>
			<point x="116" y="524"/>
			<point x="43" y="458"/>
			<point x="43" y="351" type="curve" smooth="yes"/>
			<point x="43" y="266"/>
			<point x="88" y="217"/>
			<point x="159" y="211" type="curve"/>
			<point x="159" y="199" type="line"/>
			<point x="136" y="198"/>
			<point x="119" y="184"/>
			<point x="109" y="160" type="curve" smooth="yes"/>
			<point x="89" y="110" type="line"/>
			<point x="39" y="110" type="line"/>
		</contour>
		<contour>
			<point x="238" y="285" type="line" smooth="yes"/>
			<point x="206" y="285"/>
			<point x="184" y="308"/>
			<point x="184" y="343" type="curve" smooth="yes"/>
			<point x="184" y="361" type="line" smooth="yes"/>
			<point x="184" y="402"/>
			<point x="206" y="423"/>
			<point x="238" y="423" type="curve" smooth="yes"/>
			<point x="330" y="423" type="line"/>
			<point x="330" y="285" type="line"/>
		</contour>
	</outline>
</glyph>
<glyph name="uni045A" format="2">
	<advance width="785"/>
	<outline>
		<contour>
			<point x="60" y="0" type="line"/>
			<point x="200" y="0" type="line"/>
			<point x="200" y="212" type="line"/>
			<point x="347" y="212" type="line"/>
			<point x="347" y="0" type="line"/>
			<point x="600" y="0" type="line" smooth="yes"/>
			<point x="692" y="0"/>
			<point x="764" y="65"/>
			<point x="764" y="183" type="curve" smooth="yes"/>
			<point x="764" y="299"/>
			<point x="692" y="364"/>
			<point x="600" y="364" type="curve" smooth="yes"/>
			<point x="487" y="364" type="line"/>
			<point x="487" y="524" type="line"/>
			<point x="347" y="524" type="line"/>
			<point x="347" y="321" type="line"/>
			<point x="200" y="321" type="line"/>
			<point x="200" y="524" type="line"/>
			<point x="60" y="524" type="line"/>
		</contour>
		<contour>
			<point x="487" y="101" type="line"/>
			<point x="487" y="263" type="line"/>
			<point x="570" y="263" type="line" smooth="yes"/>
			<point x="602" y="263"/>
			<point x="624" y="242"/>
			<point x="624" y="202" type="curve" smooth="yes"/>
			<point x="624" y="163" type="line" smooth="yes"/>
			<point x="624" y="122"/>
			<point x="602" y="101"/>
			<point x="570" y="101" type="curve" smooth="yes"/>
		</contour>
	</outline>
</glyph>
<glyph name="uni045F" format="2">
	<advance width="540"/>
	<outline>
		<contour>
			<point x="206" y="-140" type="line"/>
			<point x="333" y="-140" type="line"/>
			<point x="333" y="0" type="line"/>
			<point x="480" y="0" type="line"/>
			<point x="480" y="524" type="line"/>
			<point x="340" y="524" type="line"/>
			<point x="340" y="110" type="line"/>
			<point x="200" y="110" type="line"/>
			<point x="200" y="524" type="line"/>
			<point x="60" y="524" type="line"/>
			<point x="60" y="0" type="line"/>
			<point x="206" y="0" type="line"/>
		</contour>
	</outline>
</glyph>
<glyph name="uni049A" format="2">
	<advance width="632"/>
	<outline>
		<contour>
			<point x="487" y="-150" type="line"/>
			<point x="622" y="-150" type="line"/>
			<point x="622" y="128" type="line"/>
			<point x="518" y="128" type="line"/>
			<point x="450" y="293" type="line" smooth="yes"/>
			<point x="434" y="330"/>
			<point x="411" y="350"/>
			<point x="379" y="352" type="curve"/>
			<point x="379" y="366" type="line"/>
			<point x="406" y="371"/>
			<point x="429" y="386"/>
			<point x="446" y="425" type="curve" smooth="yes"/>
			<point x="506" y="570" type="line"/>
			<point x="562" y="570" type="line"/>
			<point x="562" y="698" type="line"/>
			<point x="505" y="698" type="line" smooth="yes"/>
			<point x="451" y="698"/>
			<point x="416" y="674"/>
			<point x="389" y="617" type="curve"/>
			<point x="299" y="416" type="line"/>
			<point x="212" y="416" type="line"/>
			<point x="212" y="698" type="line"/>
			<point x="68" y="698" type="line"/>
			<point x="68" y="0" type="line"/>
			<point x="212" y="0" type="line"/>
			<point x="212" y="290" type="line"/>
			<point x="299" y="290" type="line"/>
			<point x="388" y="83" type="line" smooth="yes"/>
			<point x="419" y="18"/>
			<point x="450" y="0"/>
			<point x="499" y="0" type="curve" smooth="yes"/>
			<point x="516" y="0" type="line"/>
			<point x="487" y="45" type="line"/>
		</contour>
	</outline>
</glyph>
<glyph name="uni049B" format="2">
	<advance width="545"/>
	<outline>
		<contour>
			<point x="408" y="-140" type="line"/>
			<point x="535" y="-140" type="line"/>
			<point x="535" y="110" type="line"/>
			<point x="453" y="110" type="line"/>
			<point x="403" y="221" type="line" smooth="yes"/>
			<point x="391" y="248"/>
			<point x="374" y="262"/>
			<point x="351" y="264" type="curve"/>
			<point x="351" y="277" type="line"/>
			<point x="373" y="279"/>
			<point x="390" y="291"/>
			<point x="404" y="325" type="curve" smooth="yes"/>
			<point x="441" y="414" type="line"/>
			<point x="488" y="414" type="line"/>
			<point x="488" y="524" type="line"/>
			<point x="433" y="524" type="line" smooth="yes"/>
			<point x="382" y="524"/>
			<point x="350" y="506"/>
			<point x="325" y="452" type="curve" smooth="yes"/>
			<point x="266" y="321" type="line"/>
			<point x="200" y="321" type="line"/>
			<point x="200" y="524" type="line"/>
			<point x="60" y="524" type="line"/>
			<point x="60" y="0" type="line"/>
			<point x="200" y="0" type="line"/>
			<point x="200" y="212" type="line"/>
			<point x="266" y="212" type="line"/>
			<point x="330" y="74" type="line" smooth="yes"/>
			<point x="356" y="22"/>
			<point x="383" y="0"/>
			<point x="433" y="0" type="curve" smooth="yes"/>
			<point x="437" y="0" type="line"/>
			<point x="408" y="47" type="line"/>
		</contour>
	</outline>
</glyph>
<glyph name="uni049C" format="2">
	<advance width="687"/>
	<outline>
		<contour>
			<point x="68" y="0" type="line"/>
			<point x="212" y="0" type="line"/>
			<point x="212" y="290" type="line"/>
			<point x="248" y="290" type="line"/>
			<point x="248" y="154" type="line"/>
			<point x="355" y="154" type="line"/>
			<point x="355" y="290" type="line"/>
			<point x="385" y="290" type="line"/>
			<point x="465" y="83" type="line" smooth="yes"/>
			<point x="490" y="17"/>
			<point x="526" y="0"/>
			<point x="578" y="0" type="curve" smooth="yes"/>
			<point x="651" y="0" type="line"/>
			<point x="651" y="128" type="line"/>
			<point x="595" y="128" type="line"/>
			<point x="535" y="290" type="line" smooth="yes"/>
			<point x="521" y="328"/>
			<point x="497" y="350"/>
			<point x="465" y="352" type="curve"/>
			<point x="465" y="366" type="line"/>
			<point x="499" y="374"/>
			<point x="519" y="398"/>
			<point x="531" y="429" type="curve" smooth="yes"/>
			<point x="583" y="570" type="line"/>
			<point x="638" y="570" type="line"/>
			<point x="638" y="698" type="line"/>
			<point x="581" y="698" type="line" smooth="yes"/>
			<point x="526" y="698"/>
			<point x="493" y="672"/>
			<point x="465" y="616" type="curve"/>
			<point x="385" y="416" type="line"/>
			<point x="355" y="416" type="line"/>
			<point x="355" y="552" type="line"/>
			<point x="248" y="552" type="line"/>
			<point x="248" y="416" type="line"/>
			<point x="212" y="416" type="line"/>
			<point x="212" y="698" type="line"/>
			<point x="68" y="698" type="line"/>
		</contour>
	</outline>
</glyph>
<glyph name="uni049D" format="2">
	<advance width="612"/>
	<outline>
		<contour>
			<point x="60" y="0" type="line"/>
			<point x="200" y="0" type="line"/>
			<point x="200" y="212" type="line"/>
			<point x="236" y="212" type="line"/>
			<point x="236" y="97" type="line"/>
			<point x="324" y="97" type="line"/>
			<point x="324" y="212" type="line"/>
			<point x="351" y="212" type="line"/>
			<point x="405" y="77" type="line" smooth="yes"/>
			<point x="427" y="23"/>
			<point x="459" y="0"/>
			<point x="515" y="0" type="curve" smooth="yes"/>
			<point x="578" y="0" type="line"/>
			<point x="578" y="110" type="line"/>
			<point x="529" y="110" type="line"/>
			<point x="486" y="221" type="line" smooth="yes"/>
			<point x="473" y="255"/>
			<point x="457" y="262"/>
			<point x="434" y="264" type="curve"/>
			<point x="434" y="277" type="line"/>
			<point x="456" y="279"/>
			<point x="472" y="290"/>
			<point x="485" y="325" type="curve" smooth="yes"/>
			<point x="517" y="414" type="line"/>
			<point x="565" y="414" type="line"/>
			<point x="565" y="524" type="line"/>
			<point x="509" y="524" type="line" smooth="yes"/>
			<point x="453" y="524"/>
			<point x="420" y="502"/>
			<point x="397" y="442" type="curve" smooth="yes"/>
			<point x="351" y="321" type="line"/>
			<point x="324" y="321" type="line"/>
			<point x="324" y="436" type="line"/>
			<point x="236" y="436" type="line"/>
			<point x="236" y="321" type="line"/>
			<point x="200" y="321" type="line"/>
			<point x="200" y="524" type="line"/>
			<point x="60" y="524" type="line"/>
		</contour>
	</outline>
</glyph>
<glyph name="uni049E" format="2">
	<advance width="640"/>
	<outline>
		<contour>
			<point x="98" y="0" type="line"/>
			<point x="241" y="0" type="line"/>
			<point x="241" y="290" type="line"/>
			<point x="329" y="290" type="line"/>
			<point x="418" y="83" type="line" smooth="yes"/>
			<point x="446" y="18"/>
			<point x="480" y="0"/>
			<point x="531" y="0" type="curve" smooth="yes"/>
			<point x="604" y="0" type="line"/>
			<point x="604" y="128" type="line"/>
			<point x="548" y="128" type="line"/>
			<point x="479" y="293" type="line" smooth="yes"/>
			<point x="462" y="333"/>
			<point x="441" y="350"/>
			<point x="409" y="352" type="curve"/>
			<point x="409" y="366" type="line"/>
			<point x="439" y="372"/>
			<point x="461" y="389"/>
			<point x="476" y="425" type="curve" smooth="yes"/>
			<point x="536" y="570" type="line"/>
			<point x="592" y="570" type="line"/>
			<point x="592" y="698" type="line"/>
			<point x="535" y="698" type="line" smooth="yes"/>
			<point x="482" y="698"/>
			<point x="446" y="676"/>
			<point x="419" y="616" type="curve" smooth="yes"/>
			<point x="329" y="416" type="line"/>
			<point x="241" y="416" type="line"/>
			<point x="241" y="536" type="line"/>
			<point x="345" y="536" type="line"/>
			<point x="345" y="644" type="line"/>
			<point x="241" y="644" type="line"/>
			<point x="241" y="698" type="line"/>
			<point x="98" y="698" type="line"/>
			<point x="98" y="644" type="line"/>
			<point x="12" y="644" type="line"/>
			<point x="12" y="536" type="line"/>
			<point x="98" y="536" type="line"/>
		</contour>
	</outline>
</glyph>
<glyph name="uni049F" format="2">
	<advance width="536"/>
	<outline>
		<contour>
			<point x="61" y="0" type="line"/>
			<point x="201" y="0" type="line"/>
			<point x="201" y="212" type="line"/>
			<point x="266" y="212" type="line"/>
			<point x="330" y="74" type="line" smooth="yes"/>
			<point x="355" y="19"/>
			<point x="387" y="0"/>
			<point x="439" y="0" type="curve" smooth="yes"/>
			<point x="502" y="0" type="line"/>
			<point x="502" y="110" type="line"/>
			<point x="454" y="110" type="line"/>
			<point x="403" y="221" type="line" smooth="yes"/>
			<point x="391" y="248"/>
			<point x="374" y="262"/>
			<point x="351" y="264" type="curve"/>
			<point x="351" y="277" type="line"/>
			<point x="373" y="280"/>
			<point x="390" y="291"/>
			<point x="404" y="325" type="curve" smooth="yes"/>
			<point x="441" y="414" type="line"/>
			<point x="489" y="414" type="line"/>
			<point x="489" y="524" type="line"/>
			<point x="433" y="524" type="line" smooth="yes"/>
			<point x="380" y="524"/>
			<point x="348" y="505"/>
			<point x="325" y="453" type="curve" smooth="yes"/>
			<point x="266" y="321" type="line"/>
			<point x="201" y="321" type="line"/>
			<point x="201" y="537" type="line"/>
			<point x="325" y="537" type="line"/>
			<point x="325" y="633" type="line"/>
			<point x="201" y="633" type="line"/>
			<point x="201" y="740" type="line"/>
			<point x="61" y="740" type="line"/>
			<point x="61" y="633" type="line"/>
			<point x="5" y="633" type="line"/>
			<point x="5" y="537" type="line"/>
			<point x="61" y="537" type="line"/>
		</contour>
	</outline>
</glyph>
<glyph name="uni04A0" format="2">
	<advance width="695"/>
	<outline>
		<contour>
			<point x="153" y="0" type="line"/>
			<point x="297" y="0" type="line"/>
			<point x="297" y="290" type="line"/>
			<point x="384" y="290" type="line"/>
			<point x="473" y="83" type="line" smooth="yes"/>
			<point x="501" y="18"/>
			<point x="534" y="0"/>
			<point x="586" y="0" type="curve" smooth="yes"/>
			<point x="659" y="0" type="line"/>
			<point x="659" y="128" type="line"/>
			<point x="603" y="128" type="line"/>
			<point x="534" y="293" type="line" smooth="yes"/>
			<point x="518" y="332"/>
			<point x="496" y="350"/>
			<point x="464" y="352" type="curve"/>
			<point x="464" y="366" type="line"/>
			<point x="494" y="372"/>
			<point x="516" y="389"/>
			<point x="531" y="425" type="curve" smooth="yes"/>
			<point x="591" y="570" type="line"/>
			<point x="647" y="570" type="line"/>
			<point x="647" y="698" type="line"/>
			<point x="590" y="698" type="line" smooth="yes"/>
			<point x="536" y="698"/>
			<point x="500" y="673"/>
			<point x="474" y="617" type="curve"/>
			<point x="384" y="416" type="line"/>
			<point x="297" y="416" type="line"/>
			<point x="297" y="698" type="line"/>
			<point x="20" y="698" type="line"/>
			<point x="20" y="570" type="line"/>
			<point x="153" y="570" type="line"/>
		</contour>
	</outline>
</glyph>
<glyph name="uni04A1" format="2">
	<advance width="607"/>
	<outline>
		<contour>
			<point x="131" y="0" type="line"/>
			<point x="271" y="0" type="line"/>
			<point x="271" y="212" type="line"/>
			<point x="337" y="212" type="line"/>
			<point x="401" y="74" type="line" smooth="yes"/>
			<point x="426" y="19"/>
			<point x="458" y="0"/>
			<point x="510" y="0" type="curve" smooth="yes"/>
			<point x="573" y="0" type="line"/>
			<point x="573" y="110" type="line"/>
			<point x="525" y="110" type="line"/>
			<point x="474" y="221" type="line" smooth="yes"/>
			<point x="461" y="249"/>
			<point x="445" y="262"/>
			<point x="422" y="264" type="curve"/>
			<point x="422" y="277" type="line"/>
			<point x="444" y="280"/>
			<point x="461" y="291"/>
			<point x="475" y="325" type="curve" smooth="yes"/>
			<point x="512" y="414" type="line"/>
			<point x="560" y="414" type="line"/>
			<point x="560" y="524" type="line"/>
			<point x="504" y="524" type="line" smooth="yes"/>
			<point x="450" y="524"/>
			<point x="419" y="504"/>
			<point x="396" y="453" type="curve" smooth="yes"/>
			<point x="337" y="321" type="line"/>
			<point x="271" y="321" type="line"/>
			<point x="271" y="524" type="line"/>
			<point x="18" y="524" type="line"/>
			<point x="18" y="414" type="line"/>
			<point x="131" y="414" type="line"/>
		</contour>
	</outline>
</glyph>
<glyph name="uni04A2" format="2">
	<advance width="712"/>
	<outline>
		<contour>
			<point x="554" y="-150" type="line"/>
			<point x="689" y="-150" type="line"/>
			<point x="689" y="128" type="line"/>
			<point x="586" y="128" type="line"/>
			<point x="586" y="698" type="line"/>
			<point x="442" y="698" type="line"/>
			<point x="442" y="416" type="line"/>
			<point x="212" y="416" type="line"/>
			<point x="212" y="698" type="line"/>
			<point x="68" y="698" type="line"/>
			<point x="68" y="0" type="line"/>
			<point x="212" y="0" type="line"/>
			<point x="212" y="290" type="line"/>
			<point x="442" y="290" type="line"/>
			<point x="442" y="0" type="line"/>
			<point x="554" y="0" type="line"/>
		</contour>
	</outline>
</glyph>
<glyph name="uni04A3" format="2">
	<advance width="586"/>
	<outline>
		<contour>
			<point x="447" y="-140" type="line"/>
			<point x="574" y="-140" type="line"/>
			<point x="574" y="110" type="line"/>
			<point x="492" y="110" type="line"/>
			<point x="492" y="524" type="line"/>
			<point x="352" y="524" type="line"/>
			<point x="352" y="321" type="line"/>
			<point x="200" y="321" type="line"/>
			<point x="200" y="524" type="line"/>
			<point x="60" y="524" type="line"/>
			<point x="60" y="0" type="line"/>
			<point x="200" y="0" type="line"/>
			<point x="200" y="212" type="line"/>
			<point x="352" y="212" type="line"/>
			<point x="352" y="0" type="line"/>
			<point x="447" y="0" type="line"/>
		</contour>
	</outline>
</glyph>
<glyph name="uni04A4" format="2">
	<advance width="820"/>
	<outline>
		<contour>
			<point x="68" y="0" type="line"/>
			<point x="212" y="0" type="line"/>
			<point x="212" y="290" type="line"/>
			<point x="424" y="290" type="line"/>
			<point x="424" y="0" type="line"/>
			<point x="568" y="0" type="line"/>
			<point x="568" y="570" type="line"/>
			<point x="796" y="570" type="line"/>
			<point x="796" y="698" type="line"/>
			<point x="424" y="698" type="line"/>
			<point x="424" y="416" type="line"/>
			<point x="212" y="416" type="line"/>
			<point x="212" y="698" type="line"/>
			<point x="68" y="698" type="line"/>
		</contour>
	</outline>
</glyph>
<glyph name="uni04A5" format="2">
	<advance width="687"/>
	<outline>
		<contour>
			<point x="60" y="0" type="line"/>
			<point x="200" y="0" type="line"/>
			<point x="200" y="212" type="line"/>
			<point x="347" y="212" type="line"/>
			<point x="347" y="0" type="line"/>
			<point x="487" y="0" type="line"/>
			<point x="487" y="414" type="line"/>
			<point x="670" y="414" type="line"/>
			<point x="670" y="524" type="line"/>
			<point x="347" y="524" type="line"/>
			<point x="347" y="321" type="line"/>
			<point x="200" y="321" type="line"/>
			<point x="200" y="524" type="line"/>
			<point x="60" y="524" type="line"/>
		</contour>
	</outline>
</glyph>
<glyph name="uni04A6" format="2">
	<advance width="934"/>
	<outline>
		<contour>
			<point x="618" y="-182" type="line"/>
			<point x="673" y="-182" type="line" smooth="yes"/>
			<point x="806" y="-182"/>
			<point x="885" y="-99"/>
			<point x="885" y="75" type="curve" smooth="yes"/>
			<point x="885" y="141" type="line" smooth="yes"/>
			<point x="885" y="310"/>
			<point x="813" y="397"/>
			<point x="665" y="397" type="curve" smooth="yes"/>
			<point x="621" y="397"/>
			<point x="587" y="388"/>
			<point x="559" y="374" type="curve"/>
			<point x="554" y="374" type="line"/>
			<point x="554" y="698" type="line"/>
			<point x="68" y="698" type="line"/>
			<point x="68" y="0" type="line"/>
			<point x="212" y="0" type="line"/>
			<point x="212" y="570" type="line"/>
			<point x="411" y="570" type="line"/>
			<point x="411" y="0" type="line"/>
			<point x="554" y="0" type="line"/>
			<point x="554" y="253" type="line"/>
			<point x="580" y="265"/>
			<point x="608" y="272"/>
			<point x="652" y="272" type="curve" smooth="yes"/>
			<point x="713" y="272"/>
			<point x="742" y="230"/>
			<point x="742" y="146" type="curve" smooth="yes"/>
			<point x="742" y="81" type="line" smooth="yes"/>
			<point x="742" y="19"/>
			<point x="730" y="-24"/>
			<point x="712" y="-49" type="curve"/>
			<point x="618" y="-49" type="line"/>
		</contour>
	</outline>
</glyph>
<glyph name="uni04A7" format="2">
	<advance width="775"/>
	<outline>
		<contour>
			<point x="499" y="-200" type="line"/>
			<point x="563" y="-200" type="line" smooth="yes"/>
			<point x="682" y="-200"/>
			<point x="734" y="-139"/>
			<point x="734" y="-1" type="curve" smooth="yes"/>
			<point x="734" y="113" type="line" smooth="yes"/>
			<point x="734" y="252"/>
			<point x="685" y="310"/>
			<point x="581" y="310" type="curve" smooth="yes"/>
			<point x="524" y="310"/>
			<point x="490" y="284"/>
			<point x="481" y="242" type="curve"/>
			<point x="464" y="242" type="line"/>
			<point x="464" y="524" type="line"/>
			<point x="60" y="524" type="line"/>
			<point x="60" y="0" type="line"/>
			<point x="200" y="0" type="line"/>
			<point x="200" y="414" type="line"/>
			<point x="324" y="414" type="line"/>
			<point x="324" y="0" type="line"/>
			<point x="464" y="0" type="line"/>
			<point x="464" y="145" type="line"/>
			<point x="466" y="175"/>
			<point x="489" y="196"/>
			<point x="531" y="196" type="curve" smooth="yes"/>
			<point x="576" y="196"/>
			<point x="594" y="175"/>
			<point x="594" y="106" type="curve" smooth="yes"/>
			<point x="594" y="11" type="line" smooth="yes"/>
			<point x="594" y="-52"/>
			<point x="587" y="-73"/>
			<point x="574" y="-90" type="curve"/>
			<point x="499" y="-90" type="line"/>
		</contour>
	</outline>
</glyph>
<glyph name="uni04A8" format="2">
	<advance width="821"/>
	<outline>
		<contour>
			<point x="793" y="79" type="line"/>
			<point x="741" y="79" type="line" smooth="yes"/>
			<point x="712" y="79"/>
			<point x="681" y="84"/>
			<point x="655" y="92" type="curve"/>
			<point x="736" y="149"/>
			<point x="768" y="246"/>
			<point x="768" y="363" type="curve" smooth="yes"/>
			<point x="768" y="551"/>
			<point x="679" y="649"/>
			<point x="547" y="649" type="curve" smooth="yes"/>
			<point x="414" y="649"/>
			<point x="325" y="551"/>
			<point x="325" y="363" type="curve" smooth="yes"/>
			<point x="325" y="252"/>
			<point x="350" y="167"/>
			<point x="411" y="102" type="curve"/>
			<point x="397" y="99"/>
			<point x="382" y="98"/>
			<point x="370" y="98" type="curve" smooth="yes"/>
			<point x="268" y="98"/>
			<point x="191" y="171"/>
			<point x="191" y="295" type="curve" smooth="yes"/>
			<point x="191" y="430" type="line" smooth="yes"/>
			<point x="191" y="523"/>
			<point x="241" y="586"/>
			<point x="323" y="586" type="curve" smooth="yes"/>
			<point x="331" y="586"/>
			<point x="343" y="585"/>
			<point x="346" y="583" type="curve"/>
			<point x="357" y="707" type="line"/>
			<point x="351" y="708"/>
			<point x="333" y="710"/>
			<point x="322" y="710" type="curve" smooth="yes"/>
			<point x="156" y="710"/>
			<point x="44" y="585"/>
			<point x="44" y="363" type="curve" smooth="yes"/>
			<point x="44" y="113"/>
			<point x="176" y="-12"/>
			<point x="370" y="-12" type="curve" smooth="yes"/>
			<point x="431" y="-12"/>
			<point x="481" y="-2"/>
			<point x="521" y="15" type="curve"/>
			<point x="587" y="-24"/>
			<point x="668" y="-44"/>
			<point x="741" y="-44" type="curve" smooth="yes"/>
			<point x="793" y="-44" type="line"/>
		</contour>
		<contour>
			<point x="463" y="400" type="line"/>
			<point x="463" y="473"/>
			<point x="487" y="529"/>
			<point x="546" y="529" type="curve" smooth="yes"/>
			<point x="606" y="529"/>
			<point x="630" y="473"/>
			<point x="630" y="400" type="curve" smooth="yes"/>
			<point x="630" y="312" type="line" smooth="yes"/>
			<point x="630" y="239"/>
			<point x="602" y="189"/>
			<point x="538" y="146" type="curve"/>
			<point x="485" y="191"/>
			<point x="463" y="244"/>
			<point x="463" y="312" type="curve" smooth="yes"/>
		</contour>
	</outline>
</glyph>
<glyph name="uni04A9" format="2">
	<advance width="664"/>
	<outline>
		<contour>
			<point x="643" y="66" type="line"/>
			<point x="602" y="66" type="line" smooth="yes"/>
			<point x="573" y="66"/>
			<point x="548" y="69"/>
			<point x="532" y="73" type="curve"/>
			<point x="593" y="120"/>
			<point x="623" y="186"/>
			<point x="623" y="271" type="curve" smooth="yes"/>
			<point x="623" y="406"/>
			<point x="553" y="490"/>
			<point x="439" y="490" type="curve" smooth="yes"/>
			<point x="324" y="490"/>
			<point x="255" y="405"/>
			<point x="255" y="271" type="curve" smooth="yes"/>
			<point x="255" y="189"/>
			<point x="277" y="127"/>
			<point x="319" y="83" type="curve"/>
			<point x="314" y="81"/>
			<point x="306" y="81"/>
			<point x="300" y="81" type="curve" smooth="yes"/>
			<point x="226" y="81"/>
			<point x="172" y="134"/>
			<point x="172" y="223" type="curve" smooth="yes"/>
			<point x="172" y="319" type="line" smooth="yes"/>
			<point x="172" y="388"/>
			<point x="203" y="429"/>
			<point x="255" y="429" type="curve" smooth="yes"/>
			<point x="260" y="429"/>
			<point x="265" y="429"/>
			<point x="271" y="428" type="curve"/>
			<point x="282" y="534" type="line"/>
			<point x="273" y="535"/>
			<point x="262" y="536"/>
			<point x="254" y="536" type="curve" smooth="yes"/>
			<point x="115" y="536"/>
			<point x="31" y="431"/>
			<point x="31" y="271" type="curve" smooth="yes"/>
			<point x="31" y="88"/>
			<point x="145" y="-12"/>
			<point x="296" y="-12" type="curve" smooth="yes"/>
			<point x="345" y="-12"/>
			<point x="386" y="-4"/>
			<point x="414" y="6" type="curve"/>
			<point x="472" y="-27"/>
			<point x="532" y="-44"/>
			<point x="602" y="-44" type="curve" smooth="yes"/>
			<point x="643" y="-44" type="line"/>
		</contour>
		<contour>
			<point x="391" y="303" type="line" smooth="yes"/>
			<point x="391" y="355"/>
			<point x="408" y="383"/>
			<point x="439" y="383" type="curve" smooth="yes"/>
			<point x="469" y="383"/>
			<point x="487" y="355"/>
			<point x="487" y="303" type="curve" smooth="yes"/>
			<point x="487" y="240" type="line" smooth="yes"/>
			<point x="487" y="196"/>
			<point x="473" y="154"/>
			<point x="436" y="124" type="curve"/>
			<point x="403" y="159"/>
			<point x="391" y="197"/>
			<point x="391" y="240" type="curve"/>
		</contour>
	</outline>
</glyph>
<glyph name="uni04AA" format="2">
	<advance width="589"/>
	<outline>
		<contour>
			<point x="258" y="-150" type="line"/>
			<point x="393" y="-150" type="line"/>
			<point x="393" y="-5" type="line"/>
			<point x="470" y="12"/>
			<point x="525" y="68"/>
			<point x="564" y="154" type="curve"/>
			<point x="446" y="223" type="line"/>
			<point x="428" y="163"/>
			<point x="390" y="116"/>
			<point x="325" y="116" type="curve" smooth="yes"/>
			<point x="248" y="116"/>
			<point x="196" y="179"/>
			<point x="196" y="293" type="curve" smooth="yes"/>
			<point x="196" y="404" type="line" smooth="yes"/>
			<point x="196" y="518"/>
			<point x="248" y="582"/>
			<point x="325" y="582" type="curve" smooth="yes"/>
			<point x="391" y="582"/>
			<point x="423" y="542"/>
			<point x="438" y="482" type="curve"/>
			<point x="562" y="547" type="line"/>
			<point x="516" y="656"/>
			<point x="443" y="710"/>
			<point x="325" y="710" type="curve" smooth="yes"/>
			<point x="155" y="710"/>
			<point x="44" y="580"/>
			<point x="44" y="344" type="curve" smooth="yes"/>
			<point x="44" y="138"/>
			<point x="126" y="19"/>
			<point x="258" y="-6" type="curve"/>
		</contour>
	</outline>
</glyph>
<glyph name="uni04AB" format="2">
	<advance width="467"/>
	<outline>
		<contour>
			<point x="190" y="-140" type="line"/>
			<point x="316" y="-140" type="line"/>
			<point x="316" y="-5" type="line"/>
			<point x="373" y="10"/>
			<point x="421" y="50"/>
			<point x="447" y="130" type="curve"/>
			<point x="338" y="179" type="line"/>
			<point x="324" y="130"/>
			<point x="302" y="99"/>
			<point x="253" y="99" type="curve" smooth="yes"/>
			<point x="203" y="99"/>
			<point x="177" y="144"/>
			<point x="177" y="213" type="curve" smooth="yes"/>
			<point x="177" y="310" type="line" smooth="yes"/>
			<point x="177" y="379"/>
			<point x="203" y="424"/>
			<point x="253" y="424" type="curve" smooth="yes"/>
			<point x="295" y="424"/>
			<point x="323" y="397"/>
			<point x="331" y="351" type="curve"/>
			<point x="444" y="401" type="line"/>
			<point x="416" y="485"/>
			<point x="350" y="536"/>
			<point x="253" y="536" type="curve" smooth="yes"/>
			<point x="110" y="536"/>
			<point x="31" y="430"/>
			<point x="31" y="262" type="curve" smooth="yes"/>
			<point x="31" y="119"/>
			<point x="86" y="19"/>
			<point x="190" y="-5" type="curve"/>
		</contour>
	</outline>
</glyph>
<glyph name="uni04AC" format="2">
	<advance width="527"/>
	<outline>
		<contour>
			<point x="502" y="570" type="line"/>
			<point x="502" y="698" type="line"/>
			<point x="25" y="698" type="line"/>
			<point x="25" y="570" type="line"/>
			<point x="192" y="570" type="line"/>
			<point x="192" y="0" type="line"/>
			<point x="303" y="0" type="line"/>
			<point x="303" y="-150" type="line"/>
			<point x="439" y="-150" type="line"/>
			<point x="439" y="128" type="line"/>
			<point x="335" y="128" type="line"/>
			<point x="335" y="570" type="line"/>
		</contour>
	</outline>
</glyph>
<glyph name="uni04AD" format="2">
	<advance width="445"/>
	<outline>
		<contour>
			<point x="152" y="0" type="line"/>
			<point x="247" y="0" type="line"/>
			<point x="247" y="-140" type="line"/>
			<point x="374" y="-140" type="line"/>
			<point x="374" y="110" type="line"/>
			<point x="292" y="110" type="line"/>
			<point x="292" y="414" type="line"/>
			<point x="427" y="414" type="line"/>
			<point x="427" y="524" type="line"/>
			<point x="18" y="524" type="line"/>
			<point x="18" y="414" type="line"/>
			<point x="152" y="414" type="line"/>
		</contour>
	</outline>
</glyph>
<glyph name="uni04AF" format="2">
	<advance width="488"/>
	<outline>
		<contour>
			<point x="174" y="-200" type="line"/>
			<point x="314" y="-200" type="line"/>
			<point x="314" y="0" type="line"/>
			<point x="481" y="524" type="line"/>
			<point x="349" y="524" type="line"/>
			<point x="293" y="307" type="line"/>
			<point x="256" y="139" type="line"/>
			<point x="240" y="139" type="line"/>
			<point x="204" y="307" type="line"/>
			<point x="145" y="524" type="line"/>
			<point x="7" y="524" type="line"/>
			<point x="174" y="0" type="line"/>
		</contour>
	</outline>
</glyph>
<glyph name="uni04B0" format="2">
	<advance width="590"/>
	<outline>
		<contour>
			<point x="223" y="0" type="line"/>
			<point x="368" y="0" type="line" name="hr00"/>
			<point x="368" y="165" type="line"/>
			<point x="489" y="165" type="line"/>
			<point x="489" y="273" type="line"/>
			<point x="372" y="273" type="line"/>
			<point x="580" y="698" type="line"/>
			<point x="427" y="698" type="line"/>
			<point x="307" y="412" type="line"/>
			<point x="291" y="412" type="line"/>
			<point x="169" y="698" type="line"/>
			<point x="10" y="698" type="line"/>
			<point x="219" y="273" type="line"/>
			<point x="100" y="273" type="line"/>
			<point x="100" y="165" type="line"/>
			<point x="223" y="165" type="line"/>
		</contour>
	</outline>
</glyph>
<glyph name="uni04B2" format="2">
	<advance width="631"/>
	<outline>
		<contour>
			<point x="486" y="-150" type="line"/>
			<point x="621" y="-150" type="line"/>
			<point x="621" y="128" type="line"/>
			<point x="517" y="128" type="line"/>
			<point x="395" y="358" type="line"/>
			<point x="587" y="698" type="line"/>
			<point x="433" y="698" type="line"/>
			<point x="312" y="457" type="line"/>
			<point x="310" y="457" type="line"/>
			<point x="191" y="698" type="line"/>
			<point x="24" y="698" type="line"/>
			<point x="215" y="360" type="line"/>
			<point x="14" y="0" type="line"/>
			<point x="169" y="0" type="line"/>
			<point x="297" y="261" type="line"/>
			<point x="300" y="261" type="line"/>
			<point x="432" y="0" type="line"/>
			<point x="486" y="0" type="line"/>
		</contour>
	</outline>
</glyph>
<glyph name="uni04B3" format="2">
	<advance width="520"/>
	<outline>
		<contour>
			<point x="386" y="-140" type="line"/>
			<point x="513" y="-140" type="line"/>
			<point x="513" y="110" type="line"/>
			<point x="432" y="109" type="line"/>
			<point x="338" y="263" type="line"/>
			<point x="492" y="525" type="line"/>
			<point x="350" y="525" type="line"/>
			<point x="266" y="365" type="line"/>
			<point x="252" y="365" type="line"/>
			<point x="169" y="525" type="line"/>
			<point x="18" y="525" type="line"/>
			<point x="169" y="268" type="line"/>
			<point x="18" y="0" type="line"/>
			<point x="160" y="0" type="line" name="hr00"/>
			<point x="244" y="165" type="line"/>
			<point x="258" y="165" type="line"/>
			<point x="347" y="0" type="line"/>
			<point x="386" y="0" type="line"/>
		</contour>
	</outline>
</glyph>
<glyph name="uni04B4" format="2">
	<advance width="813"/>
	<outline>
		<contour>
			<point x="654" y="-150" type="line"/>
			<point x="790" y="-150" type="line"/>
			<point x="790" y="128" type="line"/>
			<point x="687" y="128" type="line"/>
			<point x="687" y="698" type="line"/>
			<point x="543" y="698" type="line"/>
			<point x="543" y="128" type="line"/>
			<point x="316" y="128" type="line"/>
			<point x="316" y="570" type="line"/>
			<point x="464" y="570" type="line"/>
			<point x="464" y="698" type="line"/>
			<point x="25" y="698" type="line"/>
			<point x="25" y="570" type="line"/>
			<point x="173" y="570" type="line"/>
			<point x="173" y="0" type="line"/>
			<point x="654" y="0" type="line"/>
		</contour>
	</outline>
</glyph>
<glyph name="uni04B5" format="2">
	<advance width="660"/>
	<outline>
		<contour>
			<point x="521" y="-140" type="line"/>
			<point x="648" y="-140" type="line"/>
			<point x="648" y="110" type="line"/>
			<point x="566" y="110" type="line"/>
			<point x="566" y="524" type="line"/>
			<point x="426" y="524" type="line"/>
			<point x="426" y="110" type="line"/>
			<point x="269" y="110" type="line"/>
			<point x="269" y="414" type="line"/>
			<point x="379" y="414" type="line"/>
			<point x="379" y="524" type="line"/>
			<point x="18" y="524" type="line"/>
			<point x="18" y="414" type="line"/>
			<point x="129" y="414" type="line"/>
			<point x="129" y="0" type="line"/>
			<point x="521" y="0" type="line"/>
		</contour>
	</outline>
</glyph>
<glyph name="uni04B6" format="2">
	<advance width="672"/>
	<outline>
		<contour>
			<point x="514" y="-150" type="line"/>
			<point x="649" y="-150" type="line"/>
			<point x="649" y="128" type="line"/>
			<point x="546" y="128" type="line"/>
			<point x="546" y="698" type="line"/>
			<point x="402" y="698" type="line"/>
			<point x="402" y="371" type="line"/>
			<point x="377" y="359"/>
			<point x="346" y="352"/>
			<point x="294" y="352" type="curve" smooth="yes"/>
			<point x="224" y="352"/>
			<point x="192" y="394"/>
			<point x="192" y="478" type="curve" smooth="yes"/>
			<point x="192" y="698" type="line"/>
			<point x="48" y="698" type="line"/>
			<point x="48" y="483" type="line" smooth="yes"/>
			<point x="48" y="314"/>
			<point x="124" y="227"/>
			<point x="280" y="227" type="curve" smooth="yes"/>
			<point x="332" y="227"/>
			<point x="369" y="236"/>
			<point x="398" y="250" type="curve"/>
			<point x="402" y="250" type="line"/>
			<point x="402" y="0" type="line"/>
			<point x="514" y="0" type="line"/>
		</contour>
	</outline>
</glyph>
<glyph name="uni04B8" format="2">
	<advance width="633"/>
	<outline>
		<contour>
			<point x="422" y="0" type="line"/>
			<point x="565" y="0" type="line"/>
			<point x="565" y="698" type="line"/>
			<point x="422" y="698" type="line"/>
			<point x="422" y="371" type="line"/>
			<point x="402" y="361"/>
			<point x="381" y="356"/>
			<point x="365" y="354" type="curve"/>
			<point x="365" y="503" type="line"/>
			<point x="257" y="503" type="line"/>
			<point x="257" y="356" type="line"/>
			<point x="212" y="368"/>
			<point x="192" y="409"/>
			<point x="192" y="478" type="curve" smooth="yes"/>
			<point x="192" y="698" type="line"/>
			<point x="48" y="698" type="line"/>
			<point x="48" y="483" type="line" smooth="yes"/>
			<point x="48" y="330"/>
			<point x="110" y="238"/>
			<point x="257" y="228" type="curve"/>
			<point x="257" y="105" type="line"/>
			<point x="365" y="105" type="line"/>
			<point x="365" y="232" type="line"/>
			<point x="387" y="236"/>
			<point x="402" y="242"/>
			<point x="417" y="250" type="curve"/>
			<point x="422" y="250" type="line"/>
		</contour>
	</outline>
</glyph>
<glyph name="uni04B9" format="2">
	<advance width="543"/>
	<outline>
		<contour>
			<point x="343" y="0" type="line"/>
			<point x="483" y="0" type="line"/>
			<point x="483" y="524" type="line"/>
			<point x="343" y="524" type="line"/>
			<point x="343" y="321" type="line" smooth="yes"/>
			<point x="343" y="298"/>
			<point x="327" y="278"/>
			<point x="308" y="275" type="curve"/>
			<point x="308" y="413" type="line"/>
			<point x="219" y="413" type="line"/>
			<point x="219" y="275" type="line"/>
			<point x="197" y="283"/>
			<point x="185" y="304"/>
			<point x="185" y="347" type="curve" smooth="yes"/>
			<point x="185" y="524" type="line"/>
			<point x="45" y="524" type="line"/>
			<point x="45" y="340" type="line" smooth="yes"/>
			<point x="45" y="217"/>
			<point x="97" y="156"/>
			<point x="219" y="156" type="curve"/>
			<point x="219" y="75" type="line"/>
			<point x="308" y="75" type="line"/>
			<point x="308" y="171" type="line"/>
			<point x="320" y="181"/>
			<point x="330" y="196"/>
			<point x="332" y="209" type="curve"/>
			<point x="343" y="209" type="line"/>
		</contour>
	</outline>
</glyph>
<glyph name="uni04BA" format="2">
	<advance width="614"/>
	<outline>
		<contour>
			<point x="68" y="0" type="line"/>
			<point x="212" y="0" type="line"/>
			<point x="212" y="327" type="line"/>
			<point x="237" y="339"/>
			<point x="268" y="346"/>
			<point x="320" y="346" type="curve" smooth="yes"/>
			<point x="390" y="346"/>
			<point x="422" y="303"/>
			<point x="422" y="220" type="curve"/>
			<point x="422" y="0" type="line"/>
			<point x="566" y="0" type="line"/>
			<point x="566" y="215" type="line" smooth="yes"/>
			<point x="566" y="384"/>
			<point x="490" y="471"/>
			<point x="333" y="471" type="curve" smooth="yes"/>
			<point x="281" y="471"/>
			<point x="245" y="462"/>
			<point x="216" y="448" type="curve"/>
			<point x="212" y="448" type="line"/>
			<point x="212" y="698" type="line"/>
			<point x="68" y="698" type="line"/>
		</contour>
	</outline>
</glyph>
<glyph name="uni04BC" format="2">
	<advance width="797"/>
	<outline>
		<contour>
			<point x="752" y="349" type="line"/>
			<point x="752" y="585"/>
			<point x="642" y="710"/>
			<point x="474" y="710" type="curve" smooth="yes"/>
			<point x="326" y="710"/>
			<point x="224" y="609"/>
			<point x="201" y="421" type="curve"/>
			<point x="144" y="421" type="line"/>
			<point x="144" y="527" type="line"/>
			<point x="27" y="527" type="line"/>
			<point x="27" y="399" type="line" smooth="yes"/>
			<point x="27" y="337"/>
			<point x="58" y="302"/>
			<point x="125" y="302" type="curve" smooth="yes"/>
			<point x="198" y="302" type="line"/>
			<point x="215" y="94"/>
			<point x="327" y="-12"/>
			<point x="479" y="-12" type="curve" smooth="yes"/>
			<point x="623" y="-12"/>
			<point x="703" y="75"/>
			<point x="735" y="183" type="curve"/>
			<point x="605" y="230" type="line"/>
			<point x="589" y="159"/>
			<point x="559" y="116"/>
			<point x="479" y="116" type="curve" smooth="yes"/>
			<point x="401" y="116"/>
			<point x="349" y="182"/>
			<point x="349" y="296" type="curve" smooth="yes"/>
			<point x="349" y="344" type="line"/>
			<point x="307" y="302" type="line"/>
			<point x="752" y="302" type="line"/>
		</contour>
		<contour>
			<point x="474" y="582" type="curve"/>
			<point x="551" y="582"/>
			<point x="599" y="515"/>
			<point x="599" y="408" type="curve" smooth="yes"/>
			<point x="599" y="382" type="line"/>
			<point x="641" y="421" type="line"/>
			<point x="308" y="421" type="line"/>
			<point x="349" y="385" type="line"/>
			<point x="349" y="409" type="line" smooth="yes"/>
			<point x="349" y="513"/>
			<point x="396" y="582"/>
		</contour>
	</outline>
</glyph>
<glyph name="uni04BD" format="2">
	<advance width="643"/>
	<outline>
		<contour>
			<point x="400" y="-12" type="curve" smooth="yes"/>
			<point x="487" y="-12"/>
			<point x="556" y="23"/>
			<point x="600" y="79" type="curve"/>
			<point x="531" y="165" type="line"/>
			<point x="501" y="128"/>
			<point x="471" y="99"/>
			<point x="416" y="99" type="curve" smooth="yes"/>
			<point x="348" y="99"/>
			<point x="316" y="145"/>
			<point x="316" y="217" type="curve" smooth="yes"/>
			<point x="316" y="227" type="line"/>
			<point x="616" y="227" type="line"/>
			<point x="616" y="270" type="line" smooth="yes"/>
			<point x="616" y="412"/>
			<point x="554" y="536"/>
			<point x="394" y="536" type="curve" smooth="yes"/>
			<point x="266" y="536"/>
			<point x="189" y="450"/>
			<point x="174" y="310" type="curve"/>
			<point x="126" y="310" type="line"/>
			<point x="126" y="417" type="line"/>
			<point x="19" y="417" type="line"/>
			<point x="19" y="321" type="line" smooth="yes"/>
			<point x="19" y="261"/>
			<point x="45" y="227"/>
			<point x="94" y="227" type="curve" smooth="yes"/>
			<point x="173" y="227" type="line"/>
			<point x="185" y="86"/>
			<point x="262" y="-12"/>
		</contour>
		<contour>
			<point x="397" y="432" type="curve" smooth="yes"/>
			<point x="448" y="432"/>
			<point x="472" y="386"/>
			<point x="472" y="320" type="curve" smooth="yes"/>
			<point x="472" y="310" type="line"/>
			<point x="316" y="310" type="line"/>
			<point x="316" y="318" type="line" smooth="yes"/>
			<point x="316" y="386"/>
			<point x="347" y="432"/>
		</contour>
	</outline>
</glyph>
<glyph name="uni04BF" format="2">
	<advance width="643"/>
	<outline>
		<contour>
			<point x="466" y="-6" type="line"/>
			<point x="519" y="5"/>
			<point x="566" y="34"/>
			<point x="600" y="79" type="curve"/>
			<point x="531" y="165" type="line"/>
			<point x="501" y="128"/>
			<point x="471" y="99"/>
			<point x="416" y="99" type="curve" smooth="yes"/>
			<point x="348" y="99"/>
			<point x="316" y="145"/>
			<point x="316" y="217" type="curve" smooth="yes"/>
			<point x="316" y="227" type="line"/>
			<point x="616" y="227" type="line"/>
			<point x="616" y="270" type="line" smooth="yes"/>
			<point x="616" y="412"/>
			<point x="554" y="536"/>
			<point x="394" y="536" type="curve" smooth="yes"/>
			<point x="266" y="536"/>
			<point x="189" y="450"/>
			<point x="174" y="310" type="curve"/>
			<point x="126" y="310" type="line"/>
			<point x="126" y="417" type="line"/>
			<point x="19" y="417" type="line"/>
			<point x="19" y="321" type="line" smooth="yes"/>
			<point x="19" y="261"/>
			<point x="45" y="227"/>
			<point x="94" y="227" type="curve" smooth="yes"/>
			<point x="173" y="227" type="line"/>
			<point x="184" y="102"/>
			<point x="241" y="16"/>
			<point x="340" y="-6" type="curve"/>
			<point x="340" y="-140" type="line"/>
			<point x="466" y="-140" type="line"/>
		</contour>
		<contour>
			<point x="397" y="432" type="curve" smooth="yes"/>
			<point x="448" y="432"/>
			<point x="472" y="386"/>
			<point x="472" y="320" type="curve" smooth="yes"/>
			<point x="472" y="310" type="line"/>
			<point x="316" y="310" type="line"/>
			<point x="316" y="318" type="line" smooth="yes"/>
			<point x="316" y="386"/>
			<point x="347" y="432"/>
		</contour>
	</outline>
</glyph>
<glyph name="uni04CF" format="2">
	<advance width="260"/>
	<outline>
		<contour>
			<point x="60" y="0" type="line"/>
			<point x="200" y="0" type="line"/>
			<point x="200" y="740" type="line"/>
			<point x="60" y="740" type="line"/>
		</contour>
	</outline>
</glyph>
<glyph name="uni04E0" format="2">
	<advance width="534"/>
	<outline>
		<contour>
			<point x="257" y="-12" type="curve" smooth="yes"/>
			<point x="419" y="-12"/>
			<point x="515" y="76"/>
			<point x="515" y="212" type="curve" smooth="yes"/>
			<point x="515" y="347"/>
			<point x="428" y="400"/>
			<point x="325" y="400" type="curve" smooth="yes"/>
			<point x="299" y="400" type="line"/>
			<point x="328" y="366" type="line"/>
			<point x="328" y="413" type="line"/>
			<point x="487" y="567" type="line"/>
			<point x="487" y="698" type="line"/>
			<point x="71" y="698" type="line"/>
			<point x="71" y="570" type="line"/>
			<point x="232" y="570" type="line"/>
			<point x="315" y="586" type="line"/>
			<point x="315" y="570" type="line"/>
			<point x="147" y="413" type="line"/>
			<point x="147" y="293" type="line"/>
			<point x="280" y="293" type="line" smooth="yes"/>
			<point x="337" y="293"/>
			<point x="363" y="269"/>
			<point x="363" y="212" type="curve" smooth="yes"/>
			<point x="363" y="202" type="line" smooth="yes"/>
			<point x="363" y="148"/>
			<point x="327" y="116"/>
			<point x="257" y="116" type="curve" smooth="yes"/>
			<point x="204" y="116"/>
			<point x="157" y="142"/>
			<point x="119" y="188" type="curve"/>
			<point x="25" y="93" type="line"/>
			<point x="88" y="23"/>
			<point x="165" y="-12"/>
		</contour>
	</outline>
</glyph>
<glyph name="uni04E1" format="2">
	<advance width="451"/>
	<outline>
		<contour>
			<point x="229" y="-199" type="curve" smooth="yes"/>
			<point x="365" y="-199"/>
			<point x="446" y="-114"/>
			<point x="446" y="20" type="curve" smooth="yes"/>
			<point x="446" y="154"/>
			<point x="369" y="213"/>
			<point x="256" y="213" type="curve" smooth="yes"/>
			<point x="229" y="213" type="line"/>
			<point x="261" y="180" type="line"/>
			<point x="261" y="229" type="line"/>
			<point x="418" y="405" type="line"/>
			<point x="418" y="524" type="line"/>
			<point x="60" y="524" type="line"/>
			<point x="60" y="414" type="line"/>
			<point x="201" y="414" type="line"/>
			<point x="286" y="431" type="line"/>
			<point x="286" y="415" type="line"/>
			<point x="110" y="225" type="line"/>
			<point x="110" y="131" type="line"/>
			<point x="218" y="131" type="line" smooth="yes"/>
			<point x="270" y="131"/>
			<point x="305" y="100"/>
			<point x="305" y="41" type="curve" smooth="yes"/>
			<point x="305" y="9" type="line" smooth="yes"/>
			<point x="305" y="-52"/>
			<point x="281" y="-88"/>
			<point x="226" y="-88" type="curve" smooth="yes"/>
			<point x="175" y="-88"/>
			<point x="136" y="-63"/>
			<point x="110" y="-17" type="curve"/>
			<point x="21" y="-93" type="line"/>
			<point x="77" y="-169"/>
			<point x="140" y="-199"/>
		</contour>
	</outline>
</glyph>
<glyph name="uni04E8" format="2">
	<advance width="644"/>
	<anchor x="322" y="0" name="bottom"/>
	<anchor x="322" y="698" name="top"/>
	<outline>
		<contour>
			<point x="322" y="-12" type="curve" smooth="yes"/>
			<point x="489" y="-12"/>
			<point x="600" y="113"/>
			<point x="600" y="349" type="curve" smooth="yes"/>
			<point x="600" y="585"/>
			<point x="489" y="710"/>
			<point x="322" y="710" type="curve" smooth="yes"/>
			<point x="155" y="710"/>
			<point x="44" y="586"/>
			<point x="44" y="349" type="curve" smooth="yes"/>
			<point x="44" y="112"/>
			<point x="155" y="-12"/>
		</contour>
		<contour>
			<point x="322" y="107" type="curve" smooth="yes"/>
			<point x="238" y="107"/>
			<point x="186" y="175"/>
			<point x="186" y="294" type="curve" smooth="yes"/>
			<point x="186" y="328" type="line"/>
			<point x="145" y="289" type="line"/>
			<point x="499" y="289" type="line"/>
			<point x="457" y="328" type="line"/>
			<point x="457" y="295" type="line" smooth="yes"/>
			<point x="457" y="174"/>
			<point x="405" y="107"/>
		</contour>
		<contour>
			<point x="322" y="591" type="curve" smooth="yes"/>
			<point x="405" y="591"/>
			<point x="457" y="526"/>
			<point x="457" y="406" type="curve" smooth="yes"/>
			<point x="457" y="377" type="line"/>
			<point x="499" y="416" type="line"/>
			<point x="145" y="416" type="line"/>
			<point x="186" y="378" type="line"/>
			<point x="186" y="406" type="line" smooth="yes"/>
			<point x="186" y="525"/>
			<point x="238" y="591"/>
		</contour>
	</outline>
</glyph>
<glyph name="uni04E9" format="2">
	<advance width="508"/>
	<anchor x="253" y="0" name="bottom"/>
	<anchor x="253" y="540" name="top"/>
	<outline>
		<contour>
			<point x="254" y="-12" type="curve" smooth="yes"/>
			<point x="394" y="-12"/>
			<point x="477" y="94"/>
			<point x="477" y="262" type="curve" smooth="yes"/>
			<point x="477" y="430"/>
			<point x="394" y="536"/>
			<point x="254" y="536" type="curve" smooth="yes"/>
			<point x="114" y="536"/>
			<point x="31" y="430"/>
			<point x="31" y="262" type="curve" smooth="yes"/>
			<point x="31" y="94"/>
			<point x="114" y="-12"/>
		</contour>
		<contour>
			<point x="254" y="91" type="curve" smooth="yes"/>
			<point x="200" y="91"/>
			<point x="167" y="132"/>
			<point x="167" y="207" type="curve" smooth="yes"/>
			<point x="167" y="217" type="line"/>
			<point x="341" y="217" type="line"/>
			<point x="341" y="207" type="line" smooth="yes"/>
			<point x="341" y="132"/>
			<point x="308" y="91"/>
		</contour>
		<contour>
			<point x="167" y="317" type="line" smooth="yes"/>
			<point x="167" y="392"/>
			<point x="200" y="433"/>
			<point x="254" y="433" type="curve" smooth="yes"/>
			<point x="308" y="433"/>
			<point x="341" y="392"/>
			<point x="341" y="317" type="curve" smooth="yes"/>
			<point x="341" y="311" type="line"/>
			<point x="167" y="311" type="line"/>
		</contour>
	</outline>
</glyph>
<glyph name="uni04F7" format="2">
	<advance width="400"/>
	<outline>
		<contour>
			<point x="60" y="0" type="line"/>
			<point x="155" y="0" type="line"/>
			<point x="155" y="-140" type="line"/>
			<point x="282" y="-140" type="line"/>
			<point x="282" y="110" type="line"/>
			<point x="200" y="110" type="line"/>
			<point x="200" y="414" type="line"/>
			<point x="383" y="414" type="line"/>
			<point x="383" y="524" type="line"/>
			<point x="60" y="524" type="line"/>
		</contour>
	</outline>
</glyph>
